<?xml version="1.0" encoding="UTF-8"?>
<svg version="1.1" viewBox="0 0 1600 1600" width="1280" height="1280" xmlns="http://www.w3.org/2000/svg">
<path transform="translate(842 153)" d="m0 0c21.4-0.319 40.6 2.75 61 9.28 1.99 0.63 4 1.22 6.01 1.8 13.5 3.98 26.3 11.6 37.5 20 0.99 0.639 1.98 1.28 3 1.94 4.51 3.1 8.96 6.37 13 10.1v2c0.891 0.42 0.891 0.42 1.8 0.848 10.9 5.71 18 17.8 25.2 27.4 1.36 1.81 2.75 3.59 4.18 5.35 1.57 2.01 2.72 3.77 3.8 6.07 0.33 0.688 0.66 1.38 1 2.09 0.351 0.735 0.701 1.47 1.06 2.23 0.811 1.61 1.62 3.21 2.44 4.81 13.8 27.8 17.8 55.8 17.7 86.6-0.00187 1.84-0.00329 3.68-0.00429 5.53-0.00378 4.81-0.0136 9.61-0.0247 14.4-0.0121 5.79-0.0166 11.6-0.0225 17.4-0.00964 8.76-0.0281 17.5-0.0462 26.3 0.836-0.00184 1.67-0.00369 2.53-0.00559 20.3-0.0441 40.7-0.0773 61-0.098 9.84-0.0103 19.7-0.0244 29.5-0.0473 8.57-0.0199 17.1-0.0328 25.7-0.0373 4.54-0.00261 9.08-0.00876 13.6-0.0233 4.27-0.0136 8.54-0.0178 12.8-0.0148 1.57-5.51e-4 3.14-0.00454 4.71-0.0122 2.14-0.00993 4.28-0.00756 6.42-0.0021 1.2-0.00184 2.4-0.00369 3.63-0.00559 2.96 0.24 4.53 0.74 7.04 2.25 1.52 0.547 3.04 1.09 4.56 1.62 7.73 3.04 14.9 8.18 20.4 14.4v2h2c1.8 2.49 1.8 2.49 3.88 5.88 0.678 1.09 1.36 2.18 2.05 3.3 5.49 9.8 7.09 19.3 8.2 30.3 0.165 1.55 0.331 3.1 0.497 4.66 0.487 4.61 0.94 9.23 1.38 13.8 0.0976 1.02 0.0976 1.02 0.197 2.07 0.399 4.22 0.767 8.45 1.12 12.7 0.0885 1.04 0.177 2.09 0.268 3.17 0.392 5.23 0.421 9.93-0.581 15.1h2c1.41 11.8 2.37 23.5 3.12 35.4 0.0443 0.686 0.0886 1.37 0.134 2.08 0.752 11.7 0.752 11.7 0.701 15.4-0.21 2.13-0.21 2.13 1.04 3.15 0.205 1.77 0.348 3.55 0.465 5.34 0.0767 1.12 0.153 2.23 0.232 3.38 0.0793 1.21 0.159 2.41 0.24 3.66 0.553 7.98 1.14 15.9 2.06 23.9 1.13 9.82 1.67 19.7 2.21 29.6 0.415 7.12 1.15 14 2.31 21.1 0.765 5.04 1.11 10.1 1.47 15.2 0.587 7.85 1.24 15.7 2.06 23.5 0.782 7.44 1.32 14.9 1.69 22.3 0.125 3.13 0.125 3.13 1.25 6.09 0.193 1.7 0.342 3.42 0.465 5.13 0.0768 1.04 0.154 2.09 0.233 3.17 0.0792 1.13 0.158 2.26 0.24 3.42 0.127 1.74 0.127 1.74 0.258 3.52 0.272 3.72 0.539 7.43 0.805 11.1 0.266 3.71 0.534 7.42 0.805 11.1 0.169 2.31 0.335 4.62 0.498 6.93 0.0768 1.05 0.154 2.1 0.233 3.18 0.0658 0.921 0.132 1.84 0.199 2.79 0.264 2.58 0.739 5.05 1.27 7.59 0.234 2.4 0.434 4.81 0.613 7.22 0.113 1.48 0.225 2.96 0.338 4.45 0.0586 0.785 0.117 1.57 0.177 2.38 1.17 15.7 2.48 31.3 3.87 47 0.0846 0.953 0.169 1.91 0.256 2.89 1.16 13.1 2.44 26.1 3.81 39.1 0.865 8.53 1.39 17 1.65 25.6-0.275 4.01-0.275 4.01 1.29 7.38 0.262 2.08 0.46 4.17 0.633 6.27 0.0555 0.656 0.111 1.31 0.168 1.99 0.184 2.19 0.362 4.38 0.539 6.57 0.128 1.54 0.256 3.07 0.385 4.61 0.34 4.07 0.675 8.14 1.01 12.2 0.333 4.05 0.67 8.1 1.01 12.1 0.393 4.72 0.784 9.43 1.17 14.1 0.554 6.73 1.12 13.5 1.72 20.2 0.142 1.58 0.142 1.58 0.287 3.18 0.17 1.87 0.343 3.74 0.521 5.6 0.37 4.07 0.586 8.05 0.543 12.1-0.453 3.72-0.453 3.72 1.01 4.95 0.24 1.64 0.419 3.29 0.573 4.94 0.1 1.06 0.2 2.11 0.303 3.2 0.104 1.15 0.208 2.3 0.316 3.49 0.164 1.77 0.164 1.77 0.332 3.57 0.232 2.5 0.461 5.01 0.688 7.51 0.347 3.81 0.703 7.63 1.06 11.4 0.224 2.43 0.447 4.86 0.67 7.29 0.106 1.14 0.212 2.27 0.322 3.44 0.798 8.88 0.798 8.88 0.678 13.3 0.0599 3.91 0.711 7.27 1.53 11.1 1.01 5.32 1.37 10.7 1.81 16.1 0.108 1.27 0.216 2.55 0.328 3.86 0.228 2.69 0.45 5.39 0.67 8.08 0.221 2.7 0.45 5.4 0.687 8.1 4.9 56.2 4.9 56.2-1.97 76.6-0.412 1.98-0.807 3.96-1.19 5.94-1.78 7.96-5.19 14.8-8.81 22.1-0.351 0.772-0.701 1.54-1.06 2.34-2.38 5.2-5.69 9.6-9.13 14.1-1.53 2.13-2.73 4.14-3.8 6.52h-2c-0.247 0.742-0.495 1.48-0.75 2.25-1.38 3.03-2.8 4.51-5.25 6.75-0.763 0.763-1.53 1.53-2.31 2.31-0.887 0.887-1.77 1.77-2.69 2.69-0.702 0.754-0.702 0.754-1.42 1.52-7.24 7.62-16 14.5-25.3 19.3-2.18 1.13-4.3 2.33-6.43 3.54-11.1 6.18-23.3 11.3-35.8 13.6l-3.12 0.578c-12.9 2.17-25.8 2.57-38.8 2.55-1.46 0.00116-2.91 0.00275-4.37 0.00473-3.96 0.00414-7.92 0.00213-11.9-9.86e-4 -4.28-0.00228-8.57 0.00124-12.9 0.00398-8.38 0.00443-16.8 0.00349-25.1 5.87e-4 -6.81-0.00226-13.6-0.00256-20.4-0.00148-1.46 2.3e-4 -1.46 2.3e-4 -2.94 4.64e-4 -1.97 3.2e-4 -3.95 6.44e-4 -5.92 9.73e-4 -18.5 0.00285-37-4.2e-4 -55.4-0.0058-15.8-0.00447-31.7-0.00369-47.5 9.19e-4 -18.4 0.00536-36.8 0.00746-55.3 0.00439-1.97-3.19e-4 -3.93-6.33e-4 -5.9-9.43e-4 -0.967-1.54e-4 -1.93-3.09e-4 -2.93-4.68e-4 -6.8-8.62e-4 -13.6 5.9e-4 -20.4 0.00295-8.29 0.00281-16.6 0.00203-24.9-0.00328-4.23-0.00262-8.45-0.00367-12.7-3.51e-4 -3.87 3e-3 -7.75 0.00131-11.6-0.00398-1.4-0.00111-2.79-5.66e-4 -4.19 0.00188-22.8 0.0368-22.8 0.0368-32-3.44-1.12-0.409-2.24-0.817-3.4-1.24-3.37-1.51-6.2-3.34-9.23-5.45-0.831-0.487-1.66-0.975-2.52-1.48-2.9-1.78-5.51-3.77-8.17-5.9-0.953-0.75-1.91-1.5-2.89-2.27-2.51-2.43-3.22-4.15-4.43-7.35-0.99-0.33-1.98-0.66-3-1-8.6-9.87-12.9-26.2-13-39 0.546-7.67 1.34-15.3 4.08-22.5 1.53-4.12 2.75-8.34 4.03-12.5 1.24-4.02 2.62-7.95 4.12-11.9 1.35-3.63 2.55-7.32 3.77-11 0.5-1.51 1-3.02 1.5-4.53 0.246-0.744 0.491-1.49 0.744-2.25 0.777-2.35 1.56-4.69 2.35-7.03 1.03-3.09 2-6.18 2.91-9.31 1.06-3.58 2.27-7.05 3.61-10.5 2.5-6.77 4.66-13.7 6.91-20.5 0.938-2.77 1.94-5.51 2.97-8.25 1.38-3.78 2.53-7.49 3.45-11.4 2.44-9.76 5.8-19.2 9.98-28.3 6.64-15.5 9.67-32.9 9.82-49.6 0.0143-1.31 0.0143-1.31 0.0288-2.65-0.117-22.9-13-45.3-28.8-61.2-18.5-17.7-40.7-21.9-65.3-21.7-10.1 0.242-19 2.13-28.2 6.22-5.61 2.09-11.3 3.68-17.1 5.16-2.96 0.869-5.81 1.94-8.68 3.04-4.67 1.71-9.45 3.1-14.2 4.55-4.81 1.49-9.35 3.26-14 5.25-3.15 1.09-6.32 2.08-9.5 3.06-0.816 0.256-1.63 0.512-2.47 0.775-4.66 1.45-9.33 2.83-14 4.16-4.76 1.49-9.45 3.15-14.1 4.88-9.18 3.36-18.5 6.41-27.8 9.25-4.1 1.25-8.11 2.6-12.1 4.16-3.13 1.14-6.33 2.03-9.53 2.97-2.12 0.653-4.17 1.38-6.24 2.18-17.4 6.69-36.2 9.88-54.2 3.56l-3.04-1.03c-9.65-3.62-16.9-9.53-24-17l-2.56-2.5c-3.91-4.01-7.09-8.28-10-13.1l-1.75-2.82c-4.11-8.85-5.21-17.8-5.12-27.5 0.00395-1.15 0.0079-2.29 0.012-3.48 0.251-16.4 1.93-32.7 3.45-49 0.0824-0.886 0.165-1.77 0.25-2.69 0.42-4.37 0.997-8.65 1.72-13 0.252-2.55 0.481-5.1 0.684-7.65 0.0598-0.729 0.12-1.46 0.181-2.21 0.193-2.36 0.383-4.72 0.573-7.08 0.2-2.45 0.4-4.89 0.601-7.34 0.133-1.62 0.266-3.25 0.399-4.87 0.612-7.48 1.26-15 1.92-22.4 0.375-4.27 0.74-8.54 1.09-12.8 0.584-7.01 1.26-14 1.93-21 0.131-1.36 0.262-2.72 0.392-4.08 0.548-5.7 1.1-11.4 1.65-17.1 0.34-3.52 0.678-7.03 1.01-10.5 0.187-1.95 0.377-3.9 0.567-5.85 0.731-7.64 1.3-15.3 1.73-22.9 0.268-3.05 0.268-3.05 1.27-6.05 0.02-1.35-0.00761-2.71-0.0625-4.06-0.0671-5.75 0.601-11.3 1.28-17 0.711-6.03 1.19-12 1.54-18.1 0.246-2.82 0.246-2.82 0.777-4.94 0.534-2.14 0.495-3.93 0.406-6.13-0.0506-5 0.534-9.8 1.21-14.7 0.863-6.57 1.37-13.1 1.85-19.8 0.608-8.26 1.26-16.5 2.06-24.8 0.0793-0.836 0.159-1.67 0.24-2.53 0.576-5.72 0.576-5.72 1.7-7.97 0.201-2.23 0.346-4.47 0.465-6.7 0.0787-1.39 0.157-2.78 0.236-4.16 0.118-2.17 0.234-4.34 0.348-6.51 0.458-8.59 1.2-17 2.51-25.5 0.595-4.18 0.85-8.34 1.01-12.6 0.0734-1.62 0.148-3.24 0.223-4.86 0.035-0.788 0.0699-1.58 0.106-2.39 0.166-3.53 0.382-7.05 0.609-10.6 0.0722-1.14 0.144-2.28 0.219-3.45 0.183-2.15 0.432-4.29 0.758-6.41 0.751-5.57 1.04-11.2 1.4-16.8 0.845-12.5 2.18-24.9 3.79-37.4 0.311-2.55 0.567-5.11 0.796-7.67 1.54-16.8 8.12-30.8 21-41.9 1.59-1.14 1.59-1.14 3.59-1.14v-2c5.59-2.85 11.2-5.53 17-8 1.12-0.534 1.12-0.534 2.27-1.08 3.58-1.21 7.05-1.4 10.8-1.55 1.24-0.0499 1.24-0.0499 2.5-0.101 8.32-0.289 16.6-0.338 24.9-0.329 1.13 4.46e-4 1.13 4.46e-4 2.29 9e-4 22.2 0.0133 44.4 0.277 66.6 0.517 5.73 0.0617 11.5 0.121 17.2 0.181 11.1 0.116 22.3 0.235 33.4 0.355-0.00444-0.838-0.00888-1.68-0.0135-2.54-0.0407-8.04-0.0708-16.1-0.0902-24.1-0.0103-4.13-0.0241-8.26-0.0473-12.4-0.335-61.5-0.335-61.5 6.59-82.1 0.221-0.681 0.442-1.36 0.67-2.06 0.625-1.92 1.26-3.83 1.89-5.75 0.281-0.892 0.562-1.78 0.852-2.7 3.19-10 8.09-19.1 13.1-28.3h2c0.269-0.732 0.539-1.46 0.816-2.22 8.84-20.8 31.7-39.9 50.2-51.8 1.13-0.831 2.25-1.66 3.38-2.5 3.68-2.64 7.55-4.56 11.6-6.5 1.65-0.831 3.29-1.66 4.94-2.5 4.64-2.31 9.28-4.52 14.1-6.5 0.888-0.379 1.78-0.758 2.69-1.15 20.2-7.93 41.3-10.4 62.8-10.9zm-13.5 57.1c-1.69 0.128-3.37 0.253-5.06 0.375-3.96 0.384-7.14 1.33-10.8 2.87-3.51 1.24-7.15 1.69-10.8 2.23-2.5 0.351-2.5 0.351-4.32 2.53-1.61 0.608-3.24 1.16-4.88 1.69-11.8 4.21-21.4 11.6-31.1 19.3-0.902 0.705-1.8 1.41-2.73 2.14-2.51 2.07-4.38 4.22-6.27 6.86v2c-0.598 0.0412-1.2 0.0825-1.81 0.125-3.29 1.32-3.75 3.74-5.19 6.88-0.654 0.63-0.654 0.63-1.32 1.27-8.21 8.44-12.7 20.9-16.7 31.7-0.317 0.762-0.634 1.52-0.961 2.31-5.96 15.1-4.32 33.7-4.24 49.6 0.0182 3.8 0.0205 7.6 0.0203 11.4 0.0217 14.6 0.369 29.1 1.19 43.7 11.2 1.14 22.4 1.14 33.7 1.13 2.07 0.00136 4.14 0.00314 6.2 0.00531 5.58 0.00453 11.2 0.0028 16.7-3.79e-4 5.86-0.00254 11.7-1.8e-4 17.6 0.00139 9.84 0.00182 19.7-5.69e-4 29.5-0.00534 11.4-0.00544 22.7-0.00368 34.1 0.00183 9.78 0.00455 19.6 0.00517 29.3 0.00256 5.83-0.00155 11.7-0.00178 17.5 0.00154 5.48 0.00291 11 8.53e-4 16.4-0.00489 2-0.00131 4-9.58e-4 6.01 0.00126 10.7 0.0108 21.2-0.154 31.9-1.13 0.787-18.5 1.15-36.9 1.23-55.4 0.0117-2.26 0.0287-4.52 0.0513-6.78 0.233-24.8-2.28-46.3-15.3-67.8-0.534-0.913-1.07-1.83-1.62-2.77-5.33-8.79-12-16.1-19.4-23.2-0.763-0.804-1.53-1.61-2.31-2.44-5.31-5.07-11.2-9.16-17.7-12.6-1.13-0.594-2.25-1.19-3.41-1.8-1.26-0.651-2.52-1.3-3.78-1.95-0.607-0.318-1.21-0.637-1.84-0.965-3.34-1.69-5.13-2.29-8.97-2.29v-2c-2.9-0.815-5.79-1.63-8.69-2.44-0.817-0.23-1.63-0.46-2.47-0.697-3.93-1.1-7.82-2.16-11.8-2.87-0.86-0.173-1.72-0.345-2.61-0.523-4.89-0.687-9.78-0.887-14.7-1.1-0.995-0.0516-1.99-0.103-3.01-0.156-6.02-0.269-11.7-0.0257-17.7 0.781zm-158 77 1 2zm-147 170c-1.14 2.52-1.64 4.35-1.87 7.09-0.0755 0.844-0.151 1.69-0.229 2.56-0.0663 0.894-0.133 1.79-0.201 2.71-0.0786 0.934-0.157 1.87-0.238 2.83-0.822 10-1.41 20.1-1.85 30.2-0.401 8.94-0.95 17.8-1.79 26.7-0.0831 0.89-0.166 1.78-0.252 2.7-0.623 6.32-0.623 6.32-1.25 8.71-0.621 2.6-0.793 5.12-0.975 7.78-0.367 5.12-0.752 10.2-1.17 15.4-0.0577 0.705-0.115 1.41-0.175 2.14-1.13 13.8-2.3 27.6-3.61 41.4-0.129 1.36-0.256 2.72-0.383 4.08-0.175 1.88-0.356 3.76-0.538 5.63-0.101 1.06-0.203 2.12-0.307 3.21-0.341 2.5-0.341 2.5-1.34 4.5-0.166 2.71-0.283 5.41-0.375 8.12-0.383 9.33-1.21 18.6-2.12 27.9-0.933 9.49-1.73 18.9-2.08 28.5-0.288 6.62-1.01 13.2-1.79 19.7-1.72 15.1-3.01 30.1-4.26 45.2-0.426 5.14-0.856 10.3-1.29 15.4-0.0948 1.16-0.19 2.33-0.287 3.53-0.0903 1.07-0.181 2.15-0.274 3.25-0.116 1.41-0.116 1.41-0.235 2.85-0.29 2.5-0.29 2.5-0.789 4.49-0.628 2.52-0.829 4.98-1.04 7.58-0.0936 1.12-0.187 2.24-0.284 3.4-0.0979 1.22-0.196 2.43-0.297 3.68-0.104 1.27-0.208 2.53-0.316 3.84-0.28 3.41-0.556 6.82-0.83 10.2-0.17 2.11-0.342 4.21-0.514 6.31-1.36 16.7-2.72 33.3-3.59 50-0.272 4.91-0.698 9.66-1.58 14.5-1.41 7.94-1.91 16-2.48 24-0.193 2.69-0.395 5.38-0.599 8.08-0.128 1.74-0.256 3.48-0.383 5.22-0.0593 0.791-0.119 1.58-0.18 2.4-0.915 9.53-0.915 9.53 0.594 18.8 3.57 2.71 7.73 2.46 12 2 7.64-1.17 7.64-1.17 14-5 2.42-0.74 4.8-1.4 7.25-2 4.65-1.17 9.21-2.44 13.8-4 1.4-0.458 2.8-0.913 4.21-1.37 9.37-2.95 9.37-2.95 18.4-6.76 4.64-2.21 9.58-3.26 14.6-4.44 4.81-1.15 9.25-2.57 13.8-4.43 2-0.677 4-1.34 6-2 1.17-0.391 2.34-0.781 3.55-1.18 24.9-8.32 24.9-8.32 27.2-9.07 1.41-0.471 2.82-0.944 4.23-1.42 4.29-1.45 8.6-2.82 12.9-4.16 7.09-2.16 7.09-2.16 14.1-4.66 9.4-3.66 19.1-6.42 29-8.5 0.33-0.33 0.66-0.66 1-1 19.8-3.94 43.8-4.56 63 2 3.06 0.778 6.12 1.5 9.2 2.22 2.8 0.781 2.8 0.781 4.69 1.75 2.22 1.08 4.32 1.68 6.71 2.3 5.79 1.69 10.7 4.38 15.9 7.42 1.38 0.795 1.38 0.795 2.78 1.61 5.73 3.37 11 6.87 16 11.3 1.79 1.64 1.79 1.64 4.74 2.43v2c1.65 1.74 1.65 1.74 3.75 3.5 0.696 0.608 1.39 1.22 2.11 1.84 2.07 1.71 2.07 1.71 4.38 2.76 0.581 0.295 1.16 0.59 1.76 0.895 0.144 0.598 0.289 1.2 0.438 1.81 0.843 3.28 3.18 4.81 5.56 7.19 1.8 2.13 3.5 4.34 5.19 6.56 0.438 0.564 0.875 1.13 1.33 1.71 2.14 2.8 4.07 5.5 5.49 8.73h2c0.273 0.888 0.273 0.888 0.551 1.79 0.251 0.79 0.503 1.58 0.762 2.39 0.244 0.777 0.487 1.55 0.738 2.36 0.888 2.51 0.888 2.51 2.37 4.82 3.28 5.49 5.3 11.7 7.58 17.6 0.398 1.02 0.797 2.04 1.21 3.09 2.63 7.18 3.64 14.2 4.4 21.7 0.0464 3.03 0.0464 3.03 1.39 4.18 0.59 4.65 0.784 9.32 1 14 0.0354 0.705 0.0709 1.41 0.107 2.14 0.923 21-3.42 40.7-10.3 60.5-1.32 3.79-2.57 7.6-3.83 11.4-0.5 1.5-1 3-1.5 4.5-0.249 0.746-0.498 1.49-0.754 2.26-2.18 6.55-2.18 6.55-2.93 8.79-0.599 1.8-1.2 3.6-1.79 5.41-0.339 1.03-0.678 2.05-1.03 3.11-0.309 0.94-0.619 1.88-0.938 2.85-0.776 2.26-1.6 4.5-2.44 6.73-2 5.3-3.77 10.7-5.56 16-0.534 1.61-0.534 1.61-1.08 3.24-1.76 5.32-3.49 10.6-5.11 16-1.36 4.51-2.89 8.94-4.5 13.4-3.63 10-6.72 20.3-9.86 30.5-3.47 11.3-3.47 11.3-5.25 15.9-1.57 4.13-2.67 7.89-2.26 12.3 1.83 3.17 1.83 3.17 5 5 4.62 0.858 9.16 1.17 13.9 1.31 0.998 0.0307 0.998 0.0307 2.02 0.062 2.25 0.0661 4.51 0.124 6.76 0.18 0.808 0.021 1.62 0.0419 2.45 0.0635 24.8 0.625 49.7 0.529 74.5 0.518 5.03-0.00231 10.1-0.00256 15.1-0.00148 0.727 1.53e-4 1.45 3.06e-4 2.2 4.64e-4 1.48 3.2e-4 2.96 6.44e-4 4.43 9.73e-4 13.7 0.00282 27.5-3.85e-4 41.2-0.0058 11.7-0.00447 23.4-0.00368 35.1 9.19e-4 13.7 0.00539 27.4 0.00744 41.1 0.00439 1.47-3.18e-4 2.94-6.33e-4 4.41-9.43e-4 0.722-1.54e-4 1.44-3.09e-4 2.19-4.68e-4 5.01-8.52e-4 10 5.87e-4 15 0.00295 41.8 0.0655 41.8 0.0655 83.7-1.14 0.924-0.04 1.85-0.0799 2.8-0.121 17.6-0.492 17.6-0.492 34.2-5.88 0.84-0.434 1.68-0.869 2.55-1.32 9.09-4.77 9.09-4.77 17.5-10.7v-2c0.639-0.268 1.28-0.536 1.94-0.812 2.39-1.07 2.39-1.07 3.06-4.19 0.754-0.271 1.51-0.541 2.29-0.82 8.25-3.59 14.4-18.3 17.7-26.2 3.74-10.4 5.2-20 5.19-31-8.06e-5 -1.04-1.61e-4 -2.07-2.44e-4 -3.14 1.07-17.9 1.07-17.9-3.19-33.9-0.175-1.42-0.288-2.85-0.373-4.29-0.0568-0.912-0.114-1.82-0.172-2.76-0.0573-0.995-0.115-1.99-0.174-3.01-0.0628-1.02-0.126-2.04-0.19-3.09-0.201-3.28-0.397-6.56-0.591-9.85-0.195-3.25-0.392-6.51-0.591-9.76-0.124-2.03-0.245-4.05-0.364-6.08 0.185-9.73 0.185-9.73-2.55-18.2-0.195-1.55-0.327-3.11-0.433-4.67-0.0704-1-0.141-2-0.213-3.04-0.0728-1.1-0.146-2.2-0.221-3.33-0.164-2.34-0.327-4.69-0.491-7.03-0.0844-1.23-0.169-2.47-0.256-3.74-1.24-18.2-2.57-36.3-4.45-54.4-0.829-8.14-1.36-16.3-1.56-24.4-0.132-4.52-0.575-8.86-1.32-13.3-1.09-6.93-1.75-13.8-2.31-20.8-0.106-1.26-0.212-2.51-0.321-3.81-0.277-3.3-0.551-6.6-0.822-9.9-0.384-4.67-0.772-9.34-1.16-14-0.208-2.48-0.413-4.95-0.614-7.43-0.0936-1.12-0.187-2.24-0.284-3.39-0.121-1.47-0.121-1.47-0.244-2.97-0.286-2.62-0.779-5.13-1.3-7.72-0.178-1.71-0.326-3.43-0.449-5.15-0.0736-1-0.147-2.01-0.223-3.04-0.0761-1.08-0.152-2.15-0.23-3.26-0.0826-1.13-0.165-2.25-0.25-3.41-0.352-4.8-0.697-9.61-1.04-14.4-0.866-12-1.74-24-3.15-35.9-0.64-5.46-1.05-10.9-1.28-16.4-0.058-1.24-0.058-1.24-0.117-2.5-0.0911-1.96-0.175-3.92-0.258-5.88h-1c-0.0855-0.985-0.171-1.97-0.259-2.99-0.805-9.27-1.61-18.5-2.43-27.8-0.418-4.77-0.835-9.53-1.25-14.3-0.398-4.6-0.801-9.19-1.21-13.8-0.154-1.76-0.307-3.51-0.458-5.27-0.212-2.45-0.428-4.91-0.646-7.36-0.0619-0.732-0.124-1.46-0.187-2.22-0.303-3.75-0.303-3.75-1.57-7.26-0.167-1.81-0.276-3.63-0.359-5.45-0.0613-1.2-0.123-2.39-0.186-3.62-0.0328-0.656-0.0656-1.31-0.0994-1.99-0.883-17.3-2.38-34.6-3.92-51.8-0.112-1.27-0.224-2.54-0.339-3.84-0.321-3.63-0.648-7.27-0.977-10.9-0.0979-1.1-0.196-2.21-0.297-3.35-0.0936-1.02-0.187-2.03-0.284-3.08-0.121-1.33-0.121-1.33-0.244-2.69-0.245-2.43-0.245-2.43-1.3-5.26-0.206-2.05-0.366-4.11-0.5-6.17-0.124-1.83-0.124-1.83-0.25-3.7-0.124-1.92-0.124-1.92-0.25-3.88-0.164-2.52-0.331-5.03-0.5-7.55-0.0722-1.12-0.144-2.23-0.219-3.39-0.294-3.47-0.78-6.88-1.28-10.3-0.117-1.38-0.215-2.77-0.281-4.16-0.0561-1.07-0.0561-1.07-0.113-2.16-0.0703-1.46-0.141-2.91-0.211-4.37-0.174-3.32-0.427-6.54-0.902-9.84-0.548-3.87-0.719-7.7-0.867-11.6-0.359-7.85-1.08-15.6-1.94-23.4-1.8-16.4-3.05-32.9-4.33-49.4-0.0827-1.06-0.165-2.12-0.251-3.22-0.155-2-0.309-4-0.461-6 0.0335-8.99 0.0335-8.99-2.65-16.8-1.88-0.0987-3.77-0.126-5.65-0.127-1.23-0.00282-2.45-0.00564-3.72-0.00854-1.37 0.00194-2.74 0.00399-4.12 0.00613-1.44-0.00135-2.87-0.00313-4.31-0.00531-3.91-0.00457-7.82-0.00278-11.7 3.79e-4 -4.08 0.00252-8.17 1.86e-4 -12.2-0.00139-6.86-0.00182-13.7 5.85e-4 -20.6 0.00534-7.94 0.00544-15.9 0.00368-23.8-0.00183-6.81-0.00453-13.6-0.00518-20.4-0.00256-4.07 0.00156-8.14 0.00176-12.2-0.00154-3.83-0.00288-7.65-8.97e-4 -11.5 0.00489-1.41 0.00133-2.81 9.36e-4 -4.22-0.00126-1.92-0.00272-3.83 0.00129-5.75 0.00568-1.61 5.66e-4 -1.61 5.66e-4 -3.25 0.00114-2.52-0.0439-2.52-0.0439-4.52 1.13-0.00809 0.822-0.0162 1.64-0.0245 2.49-0.0782 7.77-0.166 15.5-0.263 23.3-0.0498 3.99-0.0961 7.99-0.134 12-0.0371 3.86-0.0835 7.72-0.136 11.6-0.0184 1.47-0.0336 2.93-0.0453 4.4-0.157 19-0.157 19-6.4 27.3-0.866 1.3-0.866 1.3-1.75 2.62-4.33 4.58-10.3 7.02-16.5 7.58-8.04 0.155-14.5-0.996-20.7-6.39-0.545-0.53-1.09-1.06-1.65-1.61-1.35-1.42-1.35-1.42-3.41-1.21-0.714-1.65-1.36-3.32-2-5-0.373-0.962-0.373-0.962-0.754-1.94-2.7-7.81-2.72-15.5-2.76-23.7-0.0169-1.49-0.035-2.98-0.0544-4.46-0.0472-3.88-0.0772-7.77-0.103-11.6-0.03-3.98-0.0764-7.95-0.121-11.9-0.0856-7.78-0.152-15.6-0.209-23.3-11.3-0.77-22.4-1.15-33.7-1.13-1.59-0.00136-3.19-0.00314-4.78-0.00531-4.29-0.00451-8.57-0.00281-12.9 3.79e-4 -4.56 0.00257-9.12 1.72e-4 -13.7-0.00139-7.69-0.00181-15.4 5.58e-4 -23.1 0.00534-7.78 0.00479-15.6 0.00486-23.3 0-53.2-0.0629-53.2-0.0629-106 0.576-1.6 0.0291-1.6 0.0291-3.24 0.0588-2.9 0.0548-5.79 0.117-8.69 0.184-0.833 0.0163-1.67 0.0326-2.53 0.0495-3.63-0.235-3.63-0.235-6.67 1.26-0.0882 1.56-0.107 3.12-0.0977 4.68 0.0033 1 0.00661 2 0.01 3.03 0.0124 1.64 0.0124 1.64 0.0251 3.32 0.00379 1.13 0.00757 2.26 0.0115 3.42 0.0163 4.84 0.044 9.69 0.0715 14.5 0.124 23.8 0.124 23.8-0.337 34.9-0.023 0.747-0.046 1.49-0.0697 2.26-0.358 6.96-2.72 12-7.61 16.9-7.44 5.8-14.6 7.85-24 7-7.81-1.76-15.6-6.33-20-13.1-2.97-5.05-3.14-10.2-3.3-15.9-0.0197-0.683-0.0393-1.37-0.0596-2.07-0.0636-2.25-0.121-4.49-0.178-6.74-0.043-1.56-0.0865-3.12-0.13-4.69-0.114-4.1-0.223-8.2-0.33-12.3-0.111-4.19-0.227-8.38-0.342-12.6-0.225-8.21-0.446-16.4-0.662-24.6-18.3-0.117-36.7-0.205-55-0.259-8.51-0.0258-17-0.061-25.5-0.118-7.42-0.0498-14.8-0.0821-22.3-0.0932-3.93-0.00653-7.86-0.0219-11.8-0.0582-3.7-0.0339-7.39-0.0444-11.1-0.0369-2.01-0.00204-4.01-0.029-6.02-0.0566-1.19 0.00687-2.38 0.0137-3.61 0.0208-1.04-0.00461-2.07-0.00922-3.14-0.014-2.79 0.382-2.79 0.382-4.4 3.01zm-61.2 24.6 1 2zm715 77 1 3zm4 45v5h1v-5h-1zm1 12v5h1v-5h-1zm-733 15 1 2zm-3 30 1 2zm-2 22 1 2zm745 10 1 3zm1 12v8h1v-8h-1zm-757 105 1 2zm261 72 4 1zm21 0v1h5v-1h-5zm491 0 1 2zm-781 14 1 3zm796 153 1 2zm1 14v5h1v-5h-1zm5 58 1 4z" fill="#FC8F21"/>
<path transform="translate(714 1e3)" d="m0 0c0.66 0.66 1.32 1.32 2 2 1.98 0.714 3.98 1.39 6 2v2l4 2v2c0.99 0.33 1.98 0.66 3 1 1.39 2.19 1.39 2.19 2.69 5 0.437 0.908 0.874 1.82 1.32 2.75 2.49 8.18 0.434 15.6-1.89 23.6-0.404 1.46-0.404 1.46-0.816 2.96-1.16 4.13-2.34 7.91-4.31 11.7-0.68 2.03-1.32 4.07-1.94 6.12-0.348 1.15-0.696 2.3-1.05 3.49-0.613 2.06-1.22 4.12-1.83 6.18-1.3 4.42-2.72 8.73-4.37 13-3.11 8.31-5.6 16.8-7.88 25.3-0.93 2.84-0.93 2.84-2.93 4.84-0.503 1.91-0.999 3.83-1.45 5.75-0.715 2.9-1.67 5.68-2.64 8.5-1.19 3.57-2.3 7.16-3.42 10.8-2.67 8.58-5.52 17.1-8.5 25.6-0.249 0.709-0.499 1.42-0.756 2.15-1.23 3.49-2.5 6.97-3.81 10.4-1.25 3.32-2.35 6.65-3.37 10-0.343 1.13-0.686 2.25-1.04 3.41-0.644 2.14-1.29 4.28-1.92 6.42-1.94 6.46-4.09 12.8-6.35 19.2-3.26 9.15-6.14 18.4-8.91 27.7-1.68 5.59-3.54 11-5.77 16.4-2.03 5.16-3.74 10.4-5.48 15.7-0.651 1.96-1.31 3.93-1.97 5.89-2.2 6.58-4.21 13.2-5.99 19.9-0.759 2.69-1.77 5.16-2.95 7.69-3.39 7.84-5.63 16-8 24.2-2.3 7.89-4.7 15.7-7.68 23.4-0.235 0.677-0.469 1.35-0.711 2.05-2.98 8.49-7.83 14.8-15.3 19.9-7.07 2.84-15.2 2.77-22.3 0.129-9.11-4.52-14.6-11.9-18.4-21.1-1.91-4.51-4.19-8.82-6.43-13.2-1.5-3.02-2.79-6.09-4.06-9.21-3.02-7.33-6.39-14.5-9.78-21.6-1.07-2.27-2.14-4.54-3.21-6.8-0.693-1.47-1.39-2.94-2.08-4.41-0.314-0.665-0.627-1.33-0.95-2.01-1.58-3.34-3.2-6.66-4.87-9.97-1.43-2.85-2.72-5.69-3.86-8.67-2.05-5.22-4.29-10.3-6.6-15.5-0.579-1.3-0.579-1.3-1.17-2.63-1.88-4.19-3.87-8.14-6.27-12.1-0.596-1.44-1.16-2.9-1.69-4.38-2.34-6.04-5.41-11.6-8.51-17.3-1.8-3.32-1.8-3.32-2.67-5.64-1.77-2.63-4.15-2.81-7.13-3.68-2.25-1.07-4.48-2.17-6.69-3.31-7.89-4.01-15.9-7.64-24-11.2-11.1-4.81-22-9.81-32.8-15.3-2.51-1.24-5.05-2.41-7.61-3.55-6.89-3.12-13.7-6.4-20.5-9.68-7.56-3.63-15.1-7.14-22.9-10.2-5.28-2.19-10.4-4.68-15.4-7.31-0.722-0.368-1.44-0.735-2.19-1.11-7.64-4.04-12.9-9.53-16.2-17.6-1.64-8.96 0.674-16 5.06-23.9 8.53-10.9 24.2-13.3 37-16.7 4.76-1.31 8.88-2.89 13.3-5.14 2.93-1.06 5.9-1.97 8.88-2.88 0.831-0.258 1.66-0.515 2.52-0.781 1.71-0.529 3.41-1.06 5.12-1.58 3.71-1.14 7.41-2.29 11.1-3.45 0.664-0.207 1.33-0.415 2.01-0.628 16.2-5.03 16.2-5.03 32-11.3 4.06-1.65 8.15-2.61 12.4-3.63 6.35-1.59 12.4-3.91 18.6-6.12 8.61-3.09 17.3-6.17 26.1-8.68 2.51-0.72 4.89-1.49 7.31-2.45 3.61-1.39 7.28-2.44 11-3.5 1.89-0.716 3.78-1.43 5.66-2.16 3.87-1.4 7.82-2.54 11.8-3.74 6.23-1.93 12.4-4.03 18.6-6.11 1.69-0.563 3.37-1.13 5.06-1.69 0.691-0.231 1.38-0.461 2.09-0.699 1.63-0.543 3.27-1.08 4.91-1.61 2.26-0.768 4.47-1.58 6.69-2.44 4.68-1.77 9.45-3.16 14.2-4.56 2.31-0.682 4.63-1.37 6.94-2.06 1.08-0.321 2.16-0.642 3.28-0.973 2.94-0.889 2.94-0.889 5.79-2.96 1.71-0.529 3.45-1 5.19-1.44 3.93-1.03 7.69-2.2 11.5-3.68 10.8-4.07 22-7.42 33.1-10.7 6.34-1.87 12.6-3.78 18.4-6.88 5.17-2.28 11.3-1.91 16.8-1.31z" fill="#A95ACC"/>
<path transform="translate(1203,831)" d="m0 0h4c1.33 4 2.67 8 4 12 0.66-0.66 1.32-1.32 2-2 2.68-0.195 2.68-0.195 5.88-0.125 1.57 0.0271 1.57 0.0271 3.18 0.0547 1.46 0.0348 1.46 0.0348 2.95 0.0703 3.89 0.211 3.89 0.211 7-1 2.71-0.258 5.41-0.469 8.12-0.625 0.762-0.045 1.52-0.0901 2.31-0.136 5.32-0.273 10.3-0.1 15.6 0.761 0.33 1.32 0.66 2.64 1 4h2c0.33-1.32 0.66-2.64 1-4 2.58 21.4 4.94 42.7 5.66 64.3 0.0314 0.87 0.0628 1.74 0.0952 2.64 0.0239 0.77 0.0479 1.54 0.0725 2.33-0.0128 1.79-0.0128 1.79 1.17 2.77 0.262 2.08 0.46 4.17 0.633 6.27 0.0832 0.984 0.0832 0.984 0.168 1.99 0.184 2.19 0.362 4.38 0.539 6.57 0.128 1.54 0.256 3.07 0.385 4.61 0.34 4.07 0.675 8.14 1.01 12.2 0.333 4.05 0.67 8.1 1.01 12.1 0.393 4.72 0.784 9.43 1.17 14.1 0.554 6.73 1.12 13.5 1.72 20.2 0.142 1.58 0.142 1.58 0.287 3.18 0.17 1.87 0.343 3.74 0.521 5.6 0.37 4.07 0.586 8.05 0.543 12.1-0.453 3.72-0.453 3.72 1.01 4.95 0.24 1.64 0.419 3.29 0.573 4.94 0.1 1.06 0.2 2.11 0.303 3.2 0.104 1.15 0.208 2.3 0.316 3.49 0.11 1.18 0.219 2.36 0.332 3.57 0.232 2.5 0.461 5.01 0.688 7.51 0.347 3.81 0.703 7.63 1.06 11.4 0.224 2.43 0.447 4.86 0.67 7.29 0.106 1.14 0.212 2.27 0.322 3.44 0.798 8.88 0.798 8.88 0.678 13.3 0.0599 3.91 0.711 7.27 1.53 11.1 1.01 5.32 1.37 10.7 1.81 16.1 0.108 1.27 0.216 2.55 0.328 3.86 0.228 2.69 0.45 5.39 0.67 8.08 0.221 2.7 0.45 5.4 0.687 8.1 4.9 56.2 4.9 56.2-1.97 76.6-0.412 1.98-0.807 3.96-1.19 5.94-1.78 7.96-5.19 14.8-8.81 22.1-0.351 0.772-0.701 1.54-1.06 2.34-2.38 5.2-5.69 9.6-9.13 14.1-1.53 2.13-2.73 4.14-3.8 6.52h-2c-0.247 0.743-0.495 1.49-0.75 2.25-1.38 3.03-2.8 4.51-5.25 6.75-0.763 0.763-1.53 1.53-2.31 2.31-0.887 0.887-1.77 1.77-2.69 2.69-0.468 0.503-0.936 1.01-1.42 1.52-7.24 7.62-16 14.5-25.3 19.3-2.18 1.13-4.3 2.33-6.43 3.54-11.1 6.18-23.3 11.3-35.8 13.6-1.55 0.286-1.55 0.286-3.12 0.578-12.9 2.17-25.8 2.57-38.8 2.55-1.46 0.00116-2.91 0.00275-4.37 0.00473-3.96 0.00414-7.92 0.00213-11.9-9.86e-4 -4.28-0.00228-8.57 0.00124-12.9 0.00398-8.38 0.00443-16.8 0.00349-25.1 5.87e-4 -6.81-0.00226-13.6-0.00256-20.4-0.00148-1.46 2.3e-4 -1.46 2.3e-4 -2.94 4.64e-4 -1.97 3.2e-4 -3.95 6.44e-4 -5.92 9.73e-4 -18.5 0.00285-37-4.2e-4 -55.4-0.0058-15.8-0.00447-31.7-0.00369-47.5 9.19e-4 -18.4 0.00536-36.8 0.00746-55.3 0.00439-1.97-3.19e-4 -3.93-6.33e-4 -5.9-9.43e-4 -0.967-1.54e-4 -1.93-3.09e-4 -2.93-4.68e-4 -6.8-8.62e-4 -13.6 5.9e-4 -20.4 0.00295-8.29 0.00281-16.6 0.00203-24.9-0.00328-4.23-0.00262-8.45-0.00367-12.7-3.51e-4 -3.87 3e-3 -7.75 0.00131-11.6-0.00398-1.4-0.00111-2.79-5.66e-4 -4.19 0.00188-22.8 0.0368-22.8 0.0368-32-3.44-1.68-0.613-1.68-0.613-3.4-1.24-3.37-1.51-6.2-3.34-9.23-5.45-0.831-0.487-1.66-0.975-2.52-1.48-2.9-1.78-5.51-3.77-8.17-5.9-0.953-0.75-1.91-1.5-2.89-2.27-2.51-2.43-3.22-4.15-4.43-7.35-0.99-0.33-1.98-0.66-3-1-8.6-9.87-12.9-26.2-13-39 0.546-7.67 1.34-15.3 4.08-22.5 1.53-4.12 2.75-8.34 4.03-12.5 1.24-4.02 2.62-7.95 4.12-11.9 1.35-3.63 2.55-7.32 3.77-11 0.5-1.51 1-3.02 1.5-4.53 0.368-1.12 0.368-1.12 0.744-2.25 0.777-2.35 1.56-4.69 2.35-7.03 1.03-3.09 2-6.18 2.91-9.31 1.06-3.58 2.27-7.05 3.61-10.5 2.5-6.77 4.66-13.7 6.91-20.5 0.938-2.77 1.94-5.51 2.97-8.25 1.38-3.78 2.53-7.49 3.45-11.4 2.44-9.76 5.8-19.2 9.98-28.3 2.01-4.7 3.3-9.58 4.63-14.5 0.256-0.909 0.512-1.82 0.775-2.75 3.32-12.2 4.46-23.8 4.29-36.4-0.00902-1.28-0.018-2.55-0.0273-3.87-0.0233-3.11-0.056-6.21-0.0977-9.32 1.93 0.785 1.93 0.785 4 2 1.19 3.44 1.19 3.44 2 7 0.33 0.99 0.66 1.98 1 3-0.33 0.66-0.66 1.32-1 2h4v-3c6.75-1.12 6.75-1.12 9 0v3h7v-3c2.31-0.25 2.31-0.25 5 0 3 3.21 3 3.21 3 5 2.87 0.25 2.87 0.25 6 0l1.5-1.5c1.5-1.5 1.5-1.5 4.56-1.69 0.969 0.0619 1.94 0.124 2.94 0.188 2.07 0.149 2.07 0.149 4-1 0.33 0.99 0.66 1.98 1 3 0.619-0.165 1.24-0.33 1.88-0.5 2.12-0.5 2.12-0.5 4.12-0.5 0.927 21.8-3.01 42-10.2 62.6-1.32 3.79-2.57 7.6-3.83 11.4-0.5 1.5-1 3-1.5 4.5-0.249 0.746-0.498 1.49-0.754 2.26-2.18 6.55-2.18 6.55-2.93 8.79-0.599 1.8-1.2 3.6-1.79 5.41-0.339 1.03-0.678 2.05-1.03 3.11-0.309 0.94-0.619 1.88-0.938 2.85-0.776 2.26-1.6 4.5-2.44 6.73-2 5.3-3.77 10.7-5.56 16-0.534 1.61-0.534 1.61-1.08 3.24-1.76 5.32-3.49 10.6-5.11 16-1.36 4.51-2.89 8.94-4.5 13.4-3.63 10-6.72 20.3-9.86 30.5-3.47 11.3-3.47 11.3-5.26 15.9-1.56 4.13-2.53 7.9-2.26 12.3 1.33 2.67 1.33 2.67 4 4 4.62 0.822 9.16 1.17 13.9 1.31 0.998 0.0307 0.998 0.0307 2.02 0.062 2.25 0.0661 4.51 0.124 6.76 0.18 0.808 0.021 1.62 0.0419 2.45 0.0635 24.8 0.625 49.7 0.529 74.5 0.518 5.03-0.00231 10.1-0.00256 15.1-0.00148 0.727 1.53e-4 1.45 3.06e-4 2.2 4.64e-4 1.48 3.2e-4 2.96 6.44e-4 4.43 9.73e-4 13.7 0.00282 27.5-3.85e-4 41.2-0.0058 11.7-0.00447 23.4-0.00368 35.1 9.19e-4 13.7 0.00539 27.4 0.00744 41.1 0.00439 1.47-3.18e-4 2.94-6.33e-4 4.41-9.43e-4 0.722-1.54e-4 1.44-3.09e-4 2.19-4.68e-4 5.01-8.52e-4 10 5.87e-4 15 0.00295 41.8 0.0655 41.8 0.0655 83.7-1.14 0.924-0.04 1.85-0.0799 2.8-0.121 17.2-0.755 30.1-3.34 45.2-11.9 0.75-0.414 1.5-0.828 2.27-1.25 4.37-2.54 7.22-5.29 10.3-9.25 1.84-2 3.86-2.59 6.38-3.5 0.708-1.31 1.37-2.65 2-4 1.09-1.72 2.2-3.43 3.31-5.12 9.44-14.8 13.9-29.3 13.9-46.9-8.06e-5 -1.04-1.61e-4 -2.07-2.44e-4 -3.14 1.07-17.9 1.07-17.9-3.19-33.9-0.175-1.42-0.288-2.85-0.373-4.29-0.0568-0.912-0.114-1.82-0.172-2.76-0.0573-0.995-0.115-1.99-0.174-3.01-0.0628-1.02-0.126-2.04-0.19-3.09-0.201-3.28-0.397-6.56-0.591-9.85-0.195-3.25-0.392-6.51-0.591-9.76-0.124-2.03-0.245-4.05-0.364-6.08 0.185-9.73 0.185-9.73-2.55-18.2-0.195-1.55-0.327-3.11-0.433-4.67-0.106-1.5-0.106-1.5-0.213-3.04-0.0728-1.1-0.146-2.2-0.221-3.33-0.164-2.34-0.327-4.69-0.491-7.03-0.0844-1.23-0.169-2.47-0.256-3.74-1.24-18.2-2.57-36.3-4.45-54.4-0.829-8.14-1.36-16.3-1.56-24.4-0.132-4.52-0.575-8.86-1.32-13.3-1.09-6.93-1.75-13.8-2.31-20.8-0.106-1.26-0.212-2.51-0.321-3.81-0.277-3.3-0.551-6.6-0.822-9.9-0.384-4.67-0.772-9.34-1.16-14-0.208-2.48-0.413-4.95-0.614-7.43-0.0936-1.12-0.187-2.24-0.284-3.39-0.0806-0.98-0.161-1.96-0.244-2.97-0.286-2.62-0.767-5.14-1.3-7.72-0.282-2.84-0.534-5.68-0.754-8.53-0.0652-0.825-0.13-1.65-0.197-2.5-0.137-1.75-0.272-3.49-0.406-5.24-0.202-2.63-0.413-5.25-0.625-7.88-0.757-9.64-1.23-19.2-1.02-28.8zm4 51 1 2zm15 167 1 2zm1 14v5h1v-5h-1zm5 58 1 4z" fill="#13DFD2"/>
<path transform="translate(503,626)" d="m0 0h1v5h2v12h2c-0.0856 0.925-0.171 1.85-0.26 2.8-0.397 4.32-0.789 8.63-1.18 12.9-0.0704 0.782-0.141 1.56-0.213 2.37-0.848 9.48-1.57 18.9-1.93 28.4-0.291 6.59-1.02 13.1-1.79 19.6-1.72 15.1-3.01 30.1-4.26 45.2-0.426 5.14-0.856 10.3-1.29 15.4-0.142 1.75-0.142 1.75-0.287 3.53-0.0903 1.07-0.181 2.15-0.274 3.25-0.116 1.41-0.116 1.41-0.235 2.85-0.29 2.5-0.29 2.5-0.789 4.49-0.628 2.52-0.829 4.98-1.04 7.58-0.0936 1.12-0.187 2.24-0.284 3.4-0.0979 1.22-0.196 2.43-0.297 3.68-0.156 1.9-0.156 1.9-0.316 3.84-0.28 3.41-0.556 6.82-0.83 10.2-0.17 2.11-0.342 4.21-0.514 6.31-1.36 16.7-2.72 33.3-3.59 50-0.272 4.91-0.699 9.67-1.58 14.5-1.4 7.88-1.91 15.8-2.48 23.8-0.192 2.66-0.395 5.32-0.599 7.98-0.666 8.91-1.19 17.7-0.969 26.7 8.25 2.24 16 0.679 24-2 0.66-0.66 1.32-1.32 2-2 2.42-0.74 4.8-1.4 7.25-2 4.65-1.17 9.21-2.44 13.8-4 1.4-0.458 2.8-0.913 4.21-1.37 9.37-2.95 9.37-2.95 18.4-6.76 4.64-2.21 9.58-3.26 14.6-4.44 4.81-1.15 9.25-2.57 13.8-4.43 2-0.677 4-1.34 6-2 1.17-0.391 2.34-0.781 3.55-1.18 24.9-8.32 24.9-8.32 27.2-9.07 1.41-0.471 2.82-0.944 4.23-1.42 4.29-1.45 8.6-2.82 12.9-4.16 7.09-2.16 7.09-2.16 14.1-4.66 9.4-3.66 19.1-6.42 29-8.5 0.33-0.33 0.66-0.66 1-1 19.8-3.95 43.8-4.5 63 2 3.35 0.787 6.71 1.5 10.1 2.22 2.93 0.781 2.93 0.781 5.93 2.78 1.5 0.463 3.01 0.881 4.53 1.27 5.82 1.69 10.8 4.36 16 7.42 0.918 0.531 1.84 1.06 2.78 1.61 6.4 3.77 12.1 7.81 17.7 12.7 0.99 0.66 1.98 1.32 3 2v2c0.86 0.391 0.86 0.391 1.74 0.789 2.44 1.3 4.35 2.79 6.45 4.59 0.695 0.585 1.39 1.17 2.11 1.77 1.71 1.85 1.71 1.85 2.2 3.95 0.169 0.626 0.338 1.25 0.512 1.9 0.576 0.282 1.15 0.565 1.75 0.855 3.33 1.69 5.14 4.52 7.32 7.46 0.434 0.569 0.868 1.14 1.31 1.72 6.62 8.78 6.62 8.78 6.62 12h2c3.28 6.3 6.2 12.7 8.88 19.3 0.858 2.09 1.76 4.17 2.68 6.24 3.88 9.44 6.02 18.2 7.04 28.3 0.0464 3.03 0.0464 3.03 1.39 4.18 0.0727 2.35 0.0837 4.71 0.0625 7.06-0.00902 1.29-0.018 2.58-0.0273 3.91-0.0174 1.5-0.0174 1.5-0.0352 3.03-1.98 0.66-3.96 1.32-6 2-0.33-0.99-0.66-1.98-1-3l-3 3v-3c-2.88 0.4-4.65 0.715-6.94 2.56-2.81 1.96-4.72 1.8-8.06 1.44l-2-2v-2c-1.98-0.66-3.96-1.32-6-2v3h-7v-3h-9v3h-4c-0.124-0.681-0.247-1.36-0.375-2.06-0.726-3.41-1.45-6.65-2.62-9.94-1.32-0.684-2.66-1.35-4-2-1.58-3.09-2.71-6.13-3.79-9.41-6.63-19.6-20.5-38.9-39.2-48.6-22-10.6-47.2-14.3-71-7-2.34 0.975-4.68 1.97-7 3-5.61 2.09-11.3 3.68-17.1 5.16-2.96 0.869-5.81 1.94-8.68 3.04-4.67 1.71-9.45 3.1-14.2 4.55-4.81 1.49-9.35 3.26-14 5.25-3.15 1.09-6.32 2.08-9.5 3.06-0.816 0.256-1.63 0.512-2.47 0.775-4.66 1.45-9.33 2.83-14 4.16-4.76 1.49-9.45 3.15-14.1 4.88-9.18 3.36-18.5 6.41-27.8 9.25-4.1 1.25-8.11 2.6-12.1 4.16-3.13 1.14-6.33 2.03-9.53 2.97-2.12 0.653-4.17 1.38-6.24 2.18-17.4 6.69-36.2 9.88-54.2 3.56-1-0.34-2.01-0.681-3.04-1.03-9.65-3.62-16.9-9.53-24-17-1.27-1.24-1.27-1.24-2.56-2.5-3.91-4.01-7.09-8.28-10-13.1-0.579-0.929-1.16-1.86-1.75-2.82-4.11-8.85-5.21-17.8-5.12-27.5 0.00395-1.15 0.0079-2.29 0.012-3.48 0.251-16.4 1.93-32.7 3.45-49 0.0824-0.886 0.165-1.77 0.25-2.69 0.42-4.37 0.997-8.65 1.72-13 0.252-2.55 0.481-5.1 0.684-7.65 0.0598-0.729 0.12-1.46 0.181-2.21 0.193-2.36 0.383-4.72 0.573-7.08 0.2-2.45 0.4-4.89 0.601-7.34 0.133-1.62 0.266-3.25 0.399-4.87 0.612-7.48 1.26-15 1.92-22.4 0.375-4.27 0.74-8.54 1.09-12.8 0.584-7.01 1.26-14 1.93-21 0.131-1.36 0.262-2.72 0.392-4.08 0.548-5.7 1.1-11.4 1.65-17.1 0.34-3.52 0.678-7.03 1.01-10.5 0.187-1.95 0.377-3.9 0.567-5.85 0.731-7.64 1.3-15.3 1.73-22.9 0.268-3.05 0.268-3.05 1.27-6.05 0.02-1.35-0.00761-2.71-0.0625-4.06-0.0671-5.75 0.601-11.3 1.28-17 0.711-6.03 1.19-12 1.54-18.1 0.246-2.82 0.246-2.82 0.777-4.91 0.555-2.26 0.493-4.21 0.406-6.53-0.0713-5.32 0.832-10.2 2.06-15.4l1 2c1.32-0.33 2.64-0.66 4-1 0.217-0.897 0.217-0.897 0.438-1.81 0.45-1.75 0.991-3.47 1.56-5.19h13v-2c3.46-3 3.46-3 6-3 0.33-0.99 0.66-1.98 1-3 0.33-0.33 0.66-0.66 1-1-0.66-0.66-1.32-1.32-2-2 2.55-2.55 4.15-2.53 7.69-3.06 1.07-0.164 2.14-0.327 3.25-0.496 1.01-0.146 2.02-0.291 3.07-0.441 0.775-0.115 1.55-0.229 2.35-0.348 1.55-0.226 3.1-0.441 4.65-0.652v-2c2.97 0.495 2.97 0.495 6 1 0.495 1.49 0.495 1.49 1 3 0.33-1.65 0.66-3.3 1-5zm-56 35 1 2zm-2 22 1 2zm-11 127 1 2zm261 72 4 1zm21 0v1h5v-1h-5zm-290 14 1 3z" fill="#D2288E"/>
<path transform="translate(1020,397)" d="m0 0c21.2-0.0467 42.4-0.082 63.6-0.104 9.84-0.0103 19.7-0.0244 29.5-0.0473 8.57-0.0199 17.1-0.0328 25.7-0.0373 4.54-0.00261 9.08-0.00876 13.6-0.0233 4.27-0.0136 8.54-0.0178 12.8-0.0148 1.57-5.51e-4 3.14-0.00454 4.71-0.0122 2.14-0.00993 4.28-0.00756 6.42-0.0021 1.2-0.00184 2.4-0.00369 3.63-0.00559 2.96 0.24 4.53 0.74 7.04 2.25 1.52 0.547 3.04 1.09 4.56 1.62 7.73 3.04 14.9 8.18 20.4 14.4v2h2c1.8 2.49 1.8 2.49 3.88 5.88 1.02 1.64 1.02 1.64 2.05 3.3 5.49 9.8 7.09 19.3 8.2 30.3 0.165 1.55 0.331 3.1 0.497 4.66 0.487 4.61 0.94 9.23 1.38 13.8 0.0651 0.683 0.13 1.37 0.197 2.07 0.399 4.22 0.767 8.45 1.12 12.7 0.0885 1.04 0.177 2.09 0.268 3.17 0.392 5.23 0.421 9.93-0.581 15.1h2c1.41 11.8 2.37 23.5 3.12 35.4 0.0664 1.03 0.0664 1.03 0.134 2.08 0.752 11.7 0.752 11.7 0.701 15.4-0.21 2.13-0.21 2.13 1.04 3.15 0.205 1.77 0.348 3.55 0.465 5.34 0.0767 1.12 0.153 2.23 0.232 3.38 0.119 1.81 0.119 1.81 0.24 3.66 0.553 7.98 1.14 15.9 2.06 23.9 1.13 9.82 1.67 19.7 2.21 29.6 0.415 7.12 1.15 14 2.31 21.1 0.765 5.04 1.11 10.1 1.47 15.2 0.587 7.85 1.24 15.7 2.06 23.5 0.782 7.44 1.32 14.9 1.69 22.3 0.125 3.13 0.125 3.13 1.25 6.09 0.193 1.7 0.342 3.42 0.465 5.13 0.115 1.57 0.115 1.57 0.233 3.17 0.0792 1.13 0.158 2.26 0.24 3.42 0.085 1.16 0.17 2.32 0.258 3.52 0.272 3.72 0.539 7.43 0.805 11.1 0.266 3.71 0.534 7.42 0.805 11.1 0.169 2.31 0.335 4.62 0.498 6.93 0.115 1.58 0.115 1.58 0.233 3.18 0.0658 0.921 0.132 1.84 0.199 2.79 0.264 2.58 0.741 5.05 1.27 7.59 0.258 2.63 0.486 5.25 0.684 7.89 0.0599 0.767 0.12 1.53 0.181 2.32 0.194 2.49 0.383 4.98 0.572 7.48 0.132 1.72 0.263 3.43 0.396 5.15 0.199 2.59 0.397 5.17 0.595 7.76 0.397 5.19 0.813 10.4 1.25 15.6 0.098 1.19 0.196 2.38 0.297 3.61 0.181 2.19 0.366 4.38 0.556 6.57 0.117 1.45 0.117 1.45 0.237 2.93 0.105 1.24 0.105 1.24 0.212 2.5 0.0227 2.27-0.325 4.08-0.978 6.24h-2c-0.33-0.99-0.66-1.98-1-3-11.3-0.994-22-1.65-33 2v-2c-1.05 0.165-2.1 0.33-3.19 0.5-3.81 0.5-3.81 0.5-6.56 0.438-2.54-0.129-2.54-0.129-5.25 2.06-0.124-0.722-0.247-1.44-0.375-2.19-0.547-2.83-0.547-2.83-1.69-5.44-0.938-2.38-0.938-2.38-0.938-5.38-0.99 0.33-1.98 0.66-3 1-0.66-0.33-1.32-0.66-2-1-0.502-2.87-0.502-2.87-0.852-6.66-0.0638-0.664-0.128-1.33-0.193-2.01-0.202-2.13-0.391-4.26-0.58-6.39-0.135-1.44-0.27-2.88-0.406-4.32-0.333-3.54-0.654-7.08-0.969-10.6h-1c-0.0344-0.651-0.0688-1.3-0.104-1.97-1.07-19.5-2.7-38.9-4.46-58.3-0.168-1.88-0.168-1.88-0.339-3.79-0.321-3.59-0.648-7.17-0.978-10.8-0.0979-1.09-0.196-2.19-0.297-3.32-0.0936-1-0.187-2-0.284-3.04-0.0806-0.879-0.161-1.76-0.244-2.66-0.189-2.17-0.189-2.17-1.3-4.12-0.167-1.81-0.276-3.63-0.359-5.45-0.0613-1.2-0.123-2.39-0.186-3.62-0.0328-0.656-0.0656-1.31-0.0994-1.99-0.883-17.3-2.38-34.6-3.92-51.8-0.112-1.27-0.224-2.54-0.339-3.84-0.321-3.63-0.648-7.27-0.977-10.9-0.0979-1.1-0.196-2.21-0.297-3.35-0.14-1.52-0.14-1.52-0.284-3.08-0.0806-0.889-0.161-1.78-0.244-2.69-0.245-2.43-0.245-2.43-1.3-5.26-0.206-2.05-0.366-4.11-0.5-6.17-0.0825-1.22-0.165-2.44-0.25-3.7-0.0825-1.28-0.165-2.56-0.25-3.88-0.164-2.52-0.331-5.03-0.5-7.55-0.0722-1.12-0.144-2.23-0.219-3.39-0.294-3.47-0.78-6.88-1.28-10.3-0.117-1.38-0.215-2.77-0.281-4.16-0.0561-1.07-0.0561-1.07-0.113-2.16-0.0703-1.46-0.141-2.91-0.211-4.37-0.174-3.32-0.427-6.54-0.902-9.84-0.548-3.87-0.719-7.7-0.867-11.6-0.359-7.85-1.08-15.6-1.94-23.4-1.8-16.4-3.05-32.9-4.33-49.4-0.0827-1.06-0.165-2.12-0.251-3.22-0.155-2-0.309-4-0.461-6-0.0704-0.908-0.141-1.82-0.213-2.75-0.0897-1.17-0.0897-1.17-0.181-2.37-0.337-3.56-0.808-7.11-1.25-10.7h-148v67c-2.28 9.11-2.28 9.11-6 14-0.743 1.03-1.49 2.06-2.25 3.12-4.61 4.82-10.3 7.48-17 8.08-9.43 0.182-16.4-2.07-23.7-8.11-6.44-6.71-8.15-14.8-8.13-23.8-1.46e-4 -0.654-2.92e-4 -1.31-4.43e-4 -1.98 6.93e-4 -2.15 0.00846-4.3 0.0163-6.44 0.00187-1.5 0.00329-2.99 0.00429-4.49 0.00381-3.92 0.0136-7.85 0.0247-11.8 0.0103-4.01 0.0148-8.02 0.0198-12 0.0107-7.86 0.0283-15.7 0.0488-23.6h-17c-0.33-0.66-0.66-1.32-1-2 6.43-0.495 6.43-0.495 13-1 0.33-1.65 0.66-3.3 1-5 0.619-0.0412 1.24-0.0825 1.88-0.125 1.05-0.433 1.05-0.433 2.12-0.875 1.3-3 1.3-3 2-6h4v-2c-1.49-0.495-1.49-0.495-3-1v-6c2.48-0.495 2.48-0.495 5-1 0.33-0.99 0.66-1.98 1-3 2.63-2.56 4.11-3.92 7.81-4.25 0.722 0.0825 1.44 0.165 2.19 0.25v-3c0.742 0.0412 1.49 0.0825 2.25 0.125 2.89-0.132 4.23-0.823 6.75-2.12h4v-2c1.98-0.33 3.96-0.66 6-1 0.495-1.49 0.495-1.49 1-3 1.65-0.33 3.3-0.66 5-1 0.33-1.98 0.66-3.96 1-6-0.99-0.33-1.98-0.66-3-1 2-2 2-2 5-4 0.33-0.66 0.66-1.32 1-2 4.88 0.875 4.88 0.875 6 2 0.33-0.66 0.66-1.32 1-2h3l-1-2zm158 162 1 3zm4 45v5h1v-5h-1zm1 12v5h1v-5h-1zm7 77 1 3zm1 12v8h1v-8h-1z" fill="#F93E4D"/>
<path transform="translate(1e3 278)" d="m0 0c0.33 0.99 0.66 1.98 1 3 1.08-0.278 1.08-0.278 2.19-0.562 2.98-0.463 4.94-0.314 7.81 0.562 0.33 0.66 0.66 1.32 1 2 0.656 0.568 1.31 1.14 1.99 1.72 2.58 2.92 2.76 4.87 3.2 8.71 0.207 1.67 0.207 1.67 0.418 3.37 0.136 1.4 0.267 2.79 0.395 4.19 0.0838 0.846 0.168 1.69 0.254 2.56 0.894 10 0.874 20 0.844 30.1-0.00187 1.86-0.00329 3.73-0.00429 5.59-0.00378 4.86-0.0136 9.73-0.0247 14.6-0.0103 4.98-0.0148 9.96-0.0198 14.9-0.0107 9.74-0.0277 19.5-0.0488 29.2 0.66 0.33 1.32 0.66 2 1-0.66 0.33-1.32 0.66-2 1-0.66-0.33-1.32-0.66-2-1-0.33 0.99-0.66 1.98-1 3-0.99-0.66-1.98-1.32-3-2-3.26 1.09-5.57 2.57-8 5 0.66 0.33 1.32 0.66 2 1v6c-1.45 0.433-1.45 0.433-2.94 0.875-3.17 0.767-3.17 0.767-4.06 3.12-3.06 0.625-3.06 0.625-6 1v2c-1.13 0.124-2.27 0.248-3.44 0.375-1.18 0.206-2.35 0.413-3.56 0.625-0.33 0.66-0.66 1.32-1 2-1.65-0.33-3.3-0.66-5-1v3c-0.908 0.289-1.82 0.578-2.75 0.875-2.57 0.89-4.86 1.84-7.25 3.12v4h-6c0.342 2.97 0.342 2.97 1 6 0.66 0.33 1.32 0.66 2 1v2c-0.619 0.248-1.24 0.495-1.88 0.75-2.48 1.46-3.08 2.63-4.12 5.25h-2c-0.33 0.99-0.66 1.98-1 3-0.75 2.14-0.75 2.14-2 4-2.83 0.763-5.54 0.708-8.46 0.819-3.29 0.128-6.59 0.275-9.88 0.428-16.8 0.753-33.6 0.874-50.5 0.821-3.78-0.0103-7.56-0.0135-11.3-0.0174-10.4-0.0119-20.8-0.0337-31.2-0.0562-11.8-0.0255-23.5-0.0464-35.3-0.0573-0.761-7.89e-4 -1.52-0.00158-2.31-0.00239-28-0.027-56 0.335-84 1.06 0.00171 0.692 0.00342 1.38 0.00518 2.1 0.00359 1.45 0.00359 1.45 0.00726 2.94 0.00265 1.07 0.0053 2.14 0.00803 3.24 0.00575 2.34 0.0114 4.67 0.017 7.01 0.0171 7.2 0.0171 7.2 0.0405 14.4 0.0398 11.4 0.0718 22.8-0.402 34.1-0.0233 0.747-0.0466 1.49-0.0705 2.26-0.359 6.99-2.7 12-7.61 16.9-7.9 6.3-14.9 8.9-25 8-8.2-1.74-16.5-7.12-21.1-14.1-2.91-4.99-3.08-10.1-3.23-15.8-0.0197-0.674-0.0393-1.35-0.0596-2.04-0.0635-2.21-0.121-4.43-0.178-6.64-0.043-1.54-0.0865-3.08-0.13-4.62-0.114-4.04-0.223-8.08-0.33-12.1-0.111-4.13-0.227-8.26-0.342-12.4-0.225-8.09-0.445-16.2-0.662-24.3-0.987 0.0348-1.97 0.0696-2.99 0.105-1.28 0.0271-2.56 0.0541-3.88 0.082-1.28 0.0348-2.55 0.0696-3.87 0.105l-3.26-0.293c-0.66-0.99-1.32-1.98-2-3l3-2c-0.99-0.66-1.98-1.32-3-2 0.812-1.94 0.812-1.94 2-4 0.99-0.33 1.98-0.66 3-1-0.33-2.64-0.66-5.28-1-8 0.619-0.289 1.24-0.578 1.88-0.875 2.26-1.06 2.26-1.06 4.12-3.12 1.32-0.697 2.65-1.37 4-2v-4c4.46-0.99 4.46-0.99 9-2v-2c1.65-0.33 3.3-0.66 5-1l-1-2c0.969-0.309 1.94-0.619 2.94-0.938 2.9-0.758 2.9-0.758 4.06-2.06 5.53-0.235 5.53-0.235 8 1v-9c2.31-0.33 4.62-0.66 7-1-1.32-0.66-2.64-1.32-4-2 3.07-1.53 5.7-0.55 9 0 0.33-0.66 0.66-1.32 1-2 2.89-1.44 5.53-1.02 8.71-0.938 2.36-0.0645 4.08-0.218 6.29-1.06 0.503-0.666 1.01-1.33 1.53-2.02 3.78-3.03 7.32-2.52 12-2.46 1.47-0.00513 1.47-0.00513 2.97-0.0104 3.29-0.0066 6.58 0.0154 9.87 0.0373 2.36 0.00113 4.71 4.96e-4 7.07-0.00177 6.4-0.00115 12.8 0.0224 19.2 0.0503 6.01 0.0243 12 0.0265 18 0.0306 11.9 0.00875 23.8 0.0354 35.7 0.0732 11.6 0.0367 23.1 0.065 34.7 0.082 1.07 0.00158 1.07 0.00158 2.16 0.00318 3.58 0.00522 7.15 0.0103 10.7 0.0152 29.7 0.0415 59.3 0.112 89 0.201-0.00999-1.6-0.00999-1.6-0.0202-3.23-0.0612-10.1-0.106-20.2-0.135-30.4-0.0156-5.2-0.0366-10.4-0.0709-15.6-0.0329-5.03-0.0506-10.1-0.0583-15.1-0.00549-1.91-0.0162-3.81-0.0326-5.72-0.0963-11.7 0.654-22.6 3.32-34h4c-0.33-0.99-0.66-1.98-1-3 1.18-1.18 2.38-2.33 3.62-3.44 1.71-1.59 1.71-1.59 1.38-4.56 2-2 2-2 4.81-2.19 3.99 0.234 7.41 0.927 11.2 2.19 2.09 0 4.05-0.233 6.12-0.5 1.92-0.248 1.92-0.248 3.88-0.5-0.33-0.66-0.66-1.32-1-2 0.66-0.33 1.32-0.66 2-1z" fill="#FB533B"/>
<path transform="translate(842 153)" d="m0 0c21.4-0.319 40.6 2.75 61 9.28 1.99 0.63 4 1.22 6.01 1.8 13.5 3.98 26.3 11.6 37.5 20 0.99 0.639 1.98 1.28 3 1.94 4.51 3.1 8.96 6.37 13 10.1v2c0.594 0.28 1.19 0.559 1.8 0.848 10.9 5.71 18 17.8 25.2 27.4 1.36 1.81 2.75 3.59 4.18 5.35 1.57 2.01 2.72 3.77 3.8 6.07 0.33 0.688 0.66 1.38 1 2.09 0.351 0.735 0.701 1.47 1.06 2.23 0.811 1.61 1.62 3.21 2.44 4.81 4.09 8.21 7.94 16.4 10.6 25.2 0.291 0.956 0.583 1.91 0.883 2.9 2.25 7.71 2.25 7.71 1.12 11.1-0.33-0.66-0.66-1.32-1-2l-2 1c-0.33-0.99-0.66-1.98-1-3-1.48-0.167-2.96-0.334-4.44-0.5-0.824-0.0928-1.65-0.186-2.5-0.281-2.9-0.307-3.02-0.234-6.07 0.781-7.22 2.3-7.22 2.3-10.1 1.19-0.619-0.392-1.24-0.784-1.88-1.19-1.99-0.383-3.99-0.726-6-1v1c-1.65 0.33-3.3 0.66-5 1-0.33 0.99-0.66 1.98-1 3-0.66 0.66-1.32 1.32-2 2-0.33 0.99-0.66 1.98-1 3h-1v2c-1.49 0.99-1.49 0.99-3 2-1.03 3.33-1.03 3.33-1.69 7.12-0.251 1.28-0.503 2.56-0.762 3.88-0.182 0.987-0.364 1.97-0.551 2.99h-2c-0.112-1.35-0.112-1.35-0.227-2.72-1.52-14.4-6.3-26.9-13.8-39.3-0.534-0.913-1.07-1.83-1.62-2.77-3.66-6.03-7.78-11.1-12.7-16.2-1.72-2-1.72-2-1.72-4-0.619-0.248-1.24-0.495-1.88-0.75-2.53-1.49-2.84-2.69-4.12-5.25-1.33-0.675-2.66-1.34-4-2-1.58-1.19-3.14-2.4-4.69-3.62-7.95-5.87-17.6-11.2-27.3-13.4v-2c-1.07-0.0825-2.14-0.165-3.25-0.25-3.66-0.439-6.8-1.43-10.2-2.71-6.44-2.19-12.6-2.94-19.3-3.35-1.14-0.0777-2.27-0.155-3.44-0.236-8.37-0.513-16.4-0.4-24.7 0.548-1.41 0.0947-1.41 0.0947-2.84 0.191-4.77 0.337-8.61 1.2-13 3.05-3.51 1.24-7.15 1.69-10.8 2.23-2.5 0.351-2.5 0.351-4.32 2.53-1.61 0.608-3.24 1.16-4.88 1.69-11.9 4.25-24 12-32.9 21.1-1.25 1.2-1.25 1.2-3.25 1.2-0.371 0.866-0.371 0.866-0.75 1.75-1.43 2.58-3.03 4.31-5.25 6.25h-2c-0.268 0.969-0.536 1.94-0.812 2.94-0.392 1.01-0.784 2.02-1.19 3.06-1.49 0.495-1.49 0.495-3 1-0.268 0.825-0.536 1.65-0.812 2.5-1.06 3.14-1.97 4.72-3.88 7.31-4.69 6.77-7.4 14.5-10.3 22.2-0.343 0.895-0.686 1.79-1.04 2.71-1.45 4.05-2.22 7.91-2.84 12.2-0.831 4.82-0.831 4.82-3.31 7.38-3.56 0.95-6.24 0.521-9.81-0.25-0.66 1.98-1.32 3.96-2 6-5.31 0.801-9.29 1.24-14.4-0.25-2.35-0.609-2.35-0.609-4.56-0.75-2.52 1.61-2.52 1.61-4 4l-2 2c-3.51 0-6.56-0.375-10-1 0.202 0.866 0.405 1.73 0.613 2.62 0.434 3.78-0.142 5.82-1.43 9.38-2.04 6.08-3.01 11.9-3.7 18.3-0.162 0.892-0.325 1.78-0.492 2.7-0.66 0.33-1.32 0.66-2 1-1.24-5.52-1.19-10.9-1.19-16.5 8.06e-4 -1.13 0.00161-2.27 0.00244-3.43 0.0615-8.84 0.464-17.6 1.06-26.4 0.0784-1.18 0.157-2.36 0.238-3.58 0.763-10.3 2.03-20.4 5.32-30.2 0.221-0.681 0.442-1.36 0.67-2.06 0.625-1.92 1.26-3.83 1.89-5.75 0.281-0.892 0.562-1.78 0.852-2.7 3.19-10 8.09-19.1 13.1-28.3h2c0.269-0.732 0.539-1.46 0.816-2.22 8.84-20.8 31.7-39.9 50.2-51.8 1.13-0.831 2.25-1.66 3.38-2.5 3.68-2.64 7.55-4.56 11.6-6.5 1.65-0.831 3.29-1.66 4.94-2.5 4.64-2.31 9.28-4.52 14.1-6.5 0.888-0.379 1.78-0.758 2.69-1.15 20.2-7.93 41.3-10.4 62.8-10.9zm-171 134 1 2z" fill="#FCBD0E"/>
<path transform="translate(664,1174)" d="m0 0c6.88 0.875 6.88 0.875 8 2 0.0718 1.52 0.0839 3.04 0.0625 4.56-0.00902 0.826-0.018 1.65-0.0273 2.5-0.0174 0.957-0.0174 0.957-0.0352 1.93 0.33-0.33 0.66-0.66 1-1 0.99-0.33 1.98-0.66 3-1 1.22-2.5 1.22-2.5 2-5h3c2.38 2.85 3.06 4.32 2.74 8.05-0.286 1.08-0.572 2.15-0.867 3.26-0.452 1.72-0.452 1.72-0.914 3.47-0.936 3.13-1.94 6.18-3.17 9.2-0.799 2.03-1.5 4.07-2.18 6.14-1.05 3.18-2.11 6.36-3.19 9.53-3.51 10.4-6.85 20.8-9.94 31.3-1.55 5.2-3.33 10.2-5.39 15.2-2.03 5.18-3.75 10.5-5.5 15.7-0.651 1.96-1.31 3.93-1.97 5.89-2.2 6.58-4.21 13.2-5.99 19.9-0.759 2.69-1.77 5.16-2.95 7.69-3.39 7.84-5.63 16-8 24.2-2.3 7.89-4.7 15.7-7.68 23.4-0.235 0.677-0.469 1.35-0.711 2.05-2.98 8.49-7.83 14.8-15.3 19.9-7.07 2.84-15.2 2.77-22.3 0.129-9.11-4.52-14.6-11.9-18.4-21.1-1.91-4.51-4.19-8.82-6.43-13.2-1.5-3.02-2.79-6.09-4.06-9.21-3.02-7.33-6.39-14.5-9.78-21.6-1.07-2.27-2.14-4.54-3.21-6.8-0.693-1.47-1.39-2.94-2.08-4.41-0.314-0.665-0.627-1.33-0.95-2.01-1.58-3.34-3.2-6.66-4.87-9.97-1.43-2.85-2.72-5.69-3.86-8.67-2.05-5.22-4.29-10.3-6.6-15.5-0.386-0.867-0.772-1.73-1.17-2.63-1.88-4.19-3.86-8.14-6.27-12.1-0.597-1.42-1.16-2.86-1.69-4.31-2.89-7.48-6.67-14.6-10.3-21.7 0.495-0.495 0.495-0.495 1-1 2.34 0.287 4.67 0.619 7 1 0.33 0.99 0.66 1.98 1 3 1.32-0.66 2.64-1.32 4-2-0.495-1.48-0.495-1.48-1-3 0.99-0.495 0.99-0.495 2-1-0.124-1.11-0.124-1.11-0.25-2.25 0.25-2.75 0.25-2.75 2-5.06 2.25-1.69 2.25-1.69 6.25-1.69 0.66-0.66 1.32-1.32 2-2 1.67 0.324 3.33 0.659 5 1 2.95-0.347 5.34-0.669 8-2 0.658-3.03 0.658-3.03 1-6 2.38-0.625 2.38-0.625 5-1 0.66 0.66 1.32 1.32 2 2 2.05-0.409 2.05-0.409 4-1 0.33 0.33 0.66 0.66 1 1 1.67-0.308 3.34-0.644 5-1h3c0.66-0.66 1.32-1.32 2-2 0.949 0.0412 1.9 0.0825 2.88 0.125 3.2 0.239 3.2 0.239 4.88-2 3.47-3.28 7.63-3.46 12.2-4.12 0.66-1.98 1.32-3.96 2-6 3.63-0.33 7.26-0.66 11-1l1 2c1.64-0.247 1.64-0.247 3.31-0.5 7.83-0.958 15.2-1.16 22.7 1.5v-8h6c0.495 2.47 0.495 2.47 1 5h3c0.0773-0.624 0.155-1.25 0.234-1.89 0.766-2.11 0.766-2.11 2.66-3.16 7.92-2.36 7.92-2.36 12.1-1.95 0.33-1.65 0.66-3.3 1-5 3.68-1.18 7.17-1.07 11-1h1c-0.516-0.598-1.03-1.2-1.56-1.81-0.474-0.722-0.949-1.44-1.44-2.19 0.33-0.99 0.66-1.98 1-3z" fill="#6280F5"/>
<path transform="translate(1228,516)" d="m0 0h1c0.495 4.95 0.495 4.95 1 10h2c0.33-1.32 0.66-2.64 1-4 1.9 4.08 2.37 7.62 2.63 12.1 0.0416 0.669 0.0831 1.34 0.126 2.03 0.13 2.13 0.248 4.25 0.366 6.38 0.0865 1.43 0.174 2.86 0.262 4.29 0.625 10.4 0.625 10.4 0.574 14.1-0.206 2.11-0.206 2.11 1.04 3.12 0.205 1.77 0.348 3.55 0.465 5.34 0.0767 1.12 0.153 2.23 0.232 3.38 0.119 1.81 0.119 1.81 0.24 3.66 0.553 7.98 1.14 15.9 2.06 23.9 1.13 9.82 1.67 19.7 2.21 29.6 0.415 7.12 1.15 14 2.31 21.1 0.765 5.04 1.11 10.1 1.47 15.2 0.587 7.85 1.24 15.7 2.06 23.5 0.782 7.44 1.32 14.9 1.69 22.3 0.125 3.13 0.125 3.13 1.25 6.09 0.193 1.7 0.342 3.42 0.465 5.13 0.115 1.57 0.115 1.57 0.233 3.17 0.0792 1.13 0.158 2.26 0.24 3.42 0.085 1.16 0.17 2.32 0.258 3.52 0.272 3.72 0.539 7.43 0.805 11.1 0.266 3.71 0.534 7.42 0.805 11.1 0.169 2.31 0.335 4.62 0.498 6.93 0.115 1.58 0.115 1.58 0.233 3.18 0.0658 0.921 0.132 1.84 0.199 2.79 0.264 2.58 0.741 5.05 1.27 7.59 0.258 2.63 0.486 5.25 0.684 7.89 0.0599 0.767 0.12 1.53 0.181 2.32 0.194 2.49 0.383 4.98 0.572 7.48 0.132 1.72 0.263 3.43 0.396 5.15 0.199 2.59 0.397 5.17 0.595 7.76 0.397 5.19 0.813 10.4 1.25 15.6 0.147 1.79 0.147 1.79 0.297 3.61 0.181 2.19 0.366 4.38 0.556 6.57 0.0781 0.966 0.156 1.93 0.237 2.93 0.0699 0.826 0.14 1.65 0.212 2.5 0.0227 2.27-0.325 4.08-0.978 6.24h-2c-0.495-1.48-0.495-1.48-1-3-11.3-0.994-22-1.65-33 2v-2c-1.05 0.165-2.1 0.33-3.19 0.5-3.81 0.5-3.81 0.5-6.56 0.438-2.54-0.129-2.54-0.129-5.25 2.06-0.186-1.08-0.186-1.08-0.375-2.19-0.547-2.83-0.547-2.83-1.69-5.44-0.938-2.38-0.938-2.38-0.938-5.38-0.99 0.33-1.98 0.66-3 1-0.66-0.33-1.32-0.66-2-1-0.502-2.87-0.502-2.87-0.852-6.66-0.0638-0.664-0.128-1.33-0.193-2.01-0.202-2.13-0.391-4.26-0.58-6.39-0.135-1.44-0.27-2.88-0.406-4.32-0.333-3.54-0.654-7.08-0.969-10.6h-1c-0.0344-0.651-0.0688-1.3-0.104-1.97-1.07-19.5-2.7-38.9-4.46-58.3-0.112-1.25-0.224-2.5-0.339-3.79-0.321-3.59-0.648-7.17-0.978-10.8-0.0979-1.09-0.196-2.19-0.297-3.32-0.0936-1-0.187-2-0.284-3.04-0.0806-0.879-0.161-1.76-0.244-2.66-0.189-2.17-0.189-2.17-1.3-4.12-0.167-1.81-0.276-3.63-0.359-5.45-0.0613-1.2-0.123-2.39-0.186-3.62-0.0328-0.656-0.0656-1.31-0.0994-1.99-0.883-17.3-2.38-34.6-3.92-51.8-0.112-1.27-0.224-2.54-0.339-3.84-0.321-3.63-0.648-7.27-0.977-10.9-0.0979-1.1-0.196-2.21-0.297-3.35-0.0936-1.02-0.187-2.03-0.284-3.08-0.0806-0.889-0.161-1.78-0.244-2.69-0.245-2.43-0.245-2.43-1.3-5.26-0.206-2.05-0.366-4.11-0.5-6.17-0.0825-1.22-0.165-2.44-0.25-3.7-0.124-1.92-0.124-1.92-0.25-3.88-0.164-2.52-0.331-5.03-0.5-7.55-0.0722-1.12-0.144-2.23-0.219-3.39-0.294-3.47-0.78-6.88-1.28-10.3-0.117-1.38-0.215-2.77-0.281-4.16-0.0374-0.713-0.0748-1.43-0.113-2.16-0.0703-1.46-0.141-2.91-0.211-4.37-0.175-3.33-0.429-6.55-0.922-9.85-0.524-3.84-0.569-7.53-0.535-11.4 0.00451-0.684 0.00902-1.37 0.0137-2.07 0.0116-1.66 0.0296-3.33 0.0488-4.99 0.66 0.66 1.32 1.32 2 2 0.33-1.65 0.66-3.3 1-5h2c0.33-1.98 0.66-3.96 1-6 3.96-0.495 3.96-0.495 8-1 0.33-0.99 0.66-1.98 1-3 0.33 0.66 0.66 1.32 1 2 0.33-0.66 0.66-1.32 1-2h2c1.61 1.93 2.88 3.76 4 6 4.89-0.853 4.89-0.853 8.38-4 0.309-0.99 0.309-0.99 0.625-2 0.33-0.66 0.66-1.32 1-2h4c0.33-1.65 0.66-3.3 1-5h-2v-2h2c0.33-0.66 0.66-1.32 1-2 2.29-0.414 2.29-0.414 5.06-0.625 0.919-0.0748 1.84-0.15 2.79-0.227 1.07-0.0735 1.07-0.0735 2.15-0.148 0.66-1.98 1.32-3.96 2-6zm-50 43 1 3zm4 45v5h1v-5h-1zm1 12v5h1v-5h-1zm7 77 1 3zm1 12v8h1v-8h-1z" fill="#D72A7E"/>
<path transform="translate(795,1010)" d="m0 0c1.93 0.785 1.93 0.785 4 2 1.19 3.44 1.19 3.44 2 7 0.495 1.49 0.495 1.49 1 3-0.33 0.66-0.66 1.32-1 2h4v-3c6.75-1.12 6.75-1.12 9 0v3h7v-3c2.31-0.25 2.31-0.25 5 0 3 3.21 3 3.21 3 5 2.87 0.25 2.87 0.25 6 0 0.495-0.495 0.99-0.99 1.5-1.5 1.5-1.5 1.5-1.5 4.56-1.69 0.969 0.0619 1.94 0.124 2.94 0.188 2.07 0.149 2.07 0.149 4-1 0.495 1.49 0.495 1.49 1 3 0.619-0.165 1.24-0.33 1.88-0.5 2.12-0.5 2.12-0.5 4.12-0.5 0.927 21.8-3.01 42-10.2 62.6-1.32 3.79-2.57 7.6-3.83 11.4-0.5 1.5-1 3-1.5 4.5-0.249 0.746-0.498 1.49-0.754 2.26-2.18 6.55-2.18 6.55-2.93 8.79-0.599 1.8-1.2 3.6-1.79 5.41-0.509 1.54-0.509 1.54-1.03 3.11-0.464 1.41-0.464 1.41-0.938 2.85-0.776 2.26-1.6 4.5-2.44 6.73-2 5.3-3.77 10.7-5.56 16-0.534 1.61-0.534 1.61-1.08 3.24-1.76 5.32-3.49 10.6-5.11 16-1.36 4.51-2.89 8.94-4.5 13.4-3.63 10-6.72 20.3-9.86 30.5-3.47 11.3-3.47 11.3-5.26 15.9-1.56 4.13-2.53 7.9-2.26 12.3 1.33 2.67 1.33 2.67 4 4 5.33 0.989 10.6 1.2 16 1.32 1.25 0.0312 1.25 0.0312 2.53 0.063 2.64 0.0649 5.28 0.124 7.92 0.183 1.8 0.0432 3.6 0.0869 5.4 0.131 4.39 0.107 8.78 0.208 13.2 0.307 0.33 0.99 0.66 1.98 1 3h-3c0.33 0.33 0.66 0.66 1 1l1 2h2v2h-2v3h-7v2h4c-0.33 0.99-0.66 1.98-1 3h-8c-3.18 2.26-3.18 2.26-6 5v3h-4c-0.0825 0.784-0.165 1.57-0.25 2.38-0.75 2.62-0.75 2.62-2.69 3.75-0.681 0.289-1.36 0.577-2.06 0.875-0.66 0.99-1.32 1.98-2 3-1.66 0.382-3.32 0.714-5 1-0.99 0.66-1.98 1.32-3 2 0.33 0.66 0.66 1.32 1 2h-2c0.495 1.49 0.495 1.49 1 3-0.99 0.33-1.98 0.66-3 1-0.33 0.66-0.66 1.32-1 2-2.07 0.414-2.07 0.414-4.56 0.625-0.826 0.0748-1.65 0.15-2.5 0.227-0.638 0.049-1.28 0.098-1.93 0.148v2c1.32 0.33 2.64 0.66 4 1h-4v2c0.99 0.33 1.98 0.66 3 1-2.64 0.33-5.28 0.66-8 1-0.99-1.98-0.99-1.98-2-4-0.71 0.0116-1.42 0.0232-2.15 0.0352-1.38 0.0135-1.38 0.0135-2.79 0.0273-0.917 0.0116-1.83 0.0232-2.78 0.0352-2.29-0.0977-2.29-0.0977-3.29-1.1-0.99 0.66-1.98 1.32-3 2-6.29-0.497-10.9-4.56-15.7-8.38-0.953-0.75-1.91-1.5-2.89-2.27-2.51-2.43-3.22-4.15-4.43-7.35-0.99-0.33-1.98-0.66-3-1-8.6-9.87-12.9-26.2-13-39 0.546-7.67 1.34-15.3 4.08-22.5 1.53-4.12 2.75-8.34 4.03-12.5 1.24-4.02 2.62-7.95 4.12-11.9 1.35-3.63 2.55-7.32 3.77-11 0.5-1.51 1-3.02 1.5-4.53 0.368-1.12 0.368-1.12 0.744-2.25 0.777-2.35 1.56-4.69 2.35-7.03 1.03-3.09 2-6.18 2.91-9.31 1.06-3.58 2.27-7.05 3.61-10.5 2.5-6.77 4.66-13.7 6.91-20.5 0.938-2.77 1.94-5.51 2.97-8.25 1.38-3.78 2.53-7.49 3.45-11.4 2.44-9.76 5.8-19.2 9.98-28.3 2.01-4.7 3.3-9.58 4.63-14.5 0.256-0.909 0.512-1.82 0.775-2.75 3.32-12.2 4.46-23.8 4.29-36.4-0.00902-1.28-0.018-2.55-0.0273-3.87-0.0233-3.11-0.056-6.21-0.0977-9.32z" fill="#6180F4"/>
<path transform="translate(714 1e3)" d="m0 0c0.66 1.32 1.32 2.64 2 4h-9c-0.33 0.66-0.66 1.32-1 2h-2l-2 1c0.33 0.99 0.66 1.98 1 3 1.49-0.495 1.49-0.495 3-1h3c-0.33-1.32-0.66-2.64-1-4 3.96 0.495 3.96 0.495 8 1-0.165 1.11-0.33 2.23-0.5 3.38-0.683 5.83-0.525 11.6-0.375 17.5 0.0311 2.04-0.0394 4.08-0.125 6.12-2 2-2 2-4.62 2.12-0.784-0.0412-1.57-0.0825-2.38-0.125 0.33-0.66 0.66-1.32 1-2-5.52-1-9.47-0.87-14.9 0.52-2.74 0.626-5.31 0.611-8.11 0.48h-4-2v2h-6v3c-3.98 1.72-7.96 3.41-12 5v1c-0.763 0.0825-1.53 0.165-2.31 0.25-2.83 0.481-2.83 0.481-4.12 2.81-0.516 0.639-1.03 1.28-1.56 1.94-3.19 0.25-3.19 0.25-6 0v3c-3 3.39-6.52 3.55-10.8 3.98-2.22 0.0156-2.22 0.0156-4.38-0.594-0.608-0.129-1.22-0.258-1.84-0.391-0.66 0.66-1.32 1.32-2 2-3.12-0.375-3.12-0.375-6-1-0.33 0.99-0.66 1.98-1 3-0.598-0.206-1.2-0.412-1.81-0.625-2.47-0.682-2.47-0.682-5.19 1.62v-2h-4c-0.33 0.66-0.66 1.32-1 2v-2c-0.681 0.454-1.36 0.908-2.06 1.38-2.94 1.62-2.94 1.62-6.69 2.69-1.07 0.309-2.14 0.619-3.25 0.938l-1 2c-1.33 0.343-2.66 0.676-4 1-0.66 0.66-1.32 1.32-2 2-0.846 0.474-1.69 0.949-2.56 1.44-2.73 1.39-2.73 1.39-3.44 4.56h-4c-0.33 1.32-0.66 2.64-1 4 0.66 0.33 1.32 0.66 2 1v2h-5c0.33 0.99 0.66 1.98 1 3-0.33 0.99-0.66 1.98-1 3h-10v5c-0.99 0.495-0.99 0.495-2 1-0.99-0.66-1.98-1.32-3-2-0.825 0.165-1.65 0.33-2.5 0.5-2.5 0.5-2.5 0.5-5.5-1.5-0.959 0.99-0.959 0.99-1.94 2-4.11 2.68-7.3 2.37-12.1 2v6c-3.63 0.33-7.26 0.66-11 1v2c-3.47 0.99-3.47 0.99-7 2v4c-2 2.25-2 2.25-4 4l-1-2c-0.928 0.99-0.928 0.99-1.88 2-2.12 2-2.12 2-4.12 2v2c-2.97 0.99-2.97 0.99-6 2-0.33-0.33-0.66-0.66-1-1-2.52 0.255-2.52 0.255-5 1l-1 2c-0.99-0.33-1.98-0.66-3-1-0.33-0.99-0.66-1.98-1-3-0.66 0.66-1.32 1.32-2 2l-1-2c-0.782 0.0838-1.56 0.168-2.37 0.254-1.52 0.153-1.52 0.153-3.07 0.309-1.51 0.157-1.51 0.157-3.06 0.316-1.24 0.0599-1.24 0.0599-2.5 0.121-0.33-0.33-0.66-0.66-1-1-0.99 4.29-1.98 8.58-3 13h-8v-3c-0.33-0.33-0.66-0.66-1-1-0.235 0.645-0.469 1.29-0.711 1.95-1.29 2.05-1.29 2.05-3.45 2.66-0.812 0.0464-1.62 0.0928-2.46 0.141-0.817 0.0567-1.63 0.113-2.48 0.172-0.626 0.0258-1.25 0.0516-1.9 0.0781v2c-4.38 3-4.38 3-7 3 0.66 0.33 1.32 0.66 2 1-0.33 0.66-0.66 1.32-1 2-1.67 0.333-3.33 0.667-5 1-0.33 0.66-0.66 1.32-1 2h-2c-0.33 0.66-0.66 1.32-1 2-0.619 0.144-1.24 0.289-1.88 0.438-2.22 0.398-2.22 0.398-3.69 2.12-0.474 0.474-0.949 0.949-1.44 1.44h-3v-5c-3.47 0.99-3.47 0.99-7 2v2c-5.46 1.69-9.26 2.01-14.9 1.16-3-0.222-5.35 0.765-8.11 1.84-0.66-0.33-1.32-0.66-2-1 0.33 2.64 0.66 5.28 1 8-0.99 0.66-1.98 1.32-3 2-0.363 1.98-0.363 1.98-0.188 4.12 0.0619 1.28 0.124 2.56 0.188 3.88h2c-0.495 2.97-0.495 2.97-1 6-3.59-0.359-6.45-1.11-9.62-2.77-3-1.54-6.01-3.01-9.07-4.41l-2.42-1.12c-1.63-0.755-3.27-1.5-4.91-2.25-9.96-4.64-16.1-9.49-20.4-19.8-1.54-8.91 0.763-16 5.12-23.8 8.53-10.9 24.2-13.3 37-16.7 4.76-1.31 8.88-2.89 13.3-5.14 2.93-1.06 5.9-1.97 8.88-2.88 0.831-0.258 1.66-0.515 2.52-0.781 1.71-0.529 3.41-1.06 5.12-1.58 3.71-1.14 7.41-2.29 11.1-3.45 0.664-0.207 1.33-0.415 2.01-0.628 16.2-5.03 16.2-5.03 32-11.3 4.06-1.65 8.15-2.61 12.4-3.63 6.35-1.59 12.4-3.91 18.6-6.12 8.61-3.09 17.3-6.17 26.1-8.68 2.51-0.72 4.89-1.49 7.31-2.45 3.61-1.39 7.28-2.44 11-3.5 1.89-0.716 3.78-1.43 5.66-2.16 3.87-1.4 7.82-2.54 11.8-3.74 6.23-1.93 12.4-4.03 18.6-6.11 1.69-0.563 3.37-1.13 5.06-1.69 0.691-0.231 1.38-0.461 2.09-0.699 1.63-0.543 3.27-1.08 4.91-1.61 2.26-0.768 4.47-1.58 6.69-2.44 4.68-1.77 9.45-3.16 14.2-4.56 2.31-0.682 4.63-1.37 6.94-2.06 1.08-0.321 2.16-0.642 3.28-0.973 2.94-0.889 2.94-0.889 5.79-2.96 1.71-0.529 3.45-1 5.19-1.44 3.93-1.03 7.69-2.2 11.5-3.68 10.8-4.07 22-7.42 33.1-10.7 6.34-1.87 12.6-3.78 18.4-6.88 5.22-2.34 11.2-1.54 16.8-1.31z" fill="#B742B1"/>
<path transform="translate(705,1091)" d="m0 0c-0.478 1.29-0.957 2.58-1.44 3.88-0.267 0.719-0.534 1.44-0.809 2.18-0.754 1.95-0.754 1.95-1.75 3.95 0.33 0.33 0.66 0.66 1 1v2h3c0.33 2.31 0.66 4.62 1 7h2c0.125 2.37 0.125 2.37 0 5-0.66 0.66-1.32 1.32-2 2-0.503 1.91-0.999 3.83-1.45 5.75-0.715 2.9-1.67 5.68-2.64 8.5-1.19 3.57-2.3 7.16-3.42 10.8-1.77 5.69-3.56 11.4-5.5 17-0.218 0.636-0.436 1.27-0.661 1.93-0.775 2.26-1.56 4.51-2.34 6.76-0.249 0.726-0.499 1.45-0.756 2.2-1.47 4.21-3.15 8.16-5.24 12.1-0.99-0.66-1.98-1.32-3-2v-3c-3.22 1.67-3.22 1.67-3.69 4.62-0.155 1.18-0.155 1.18-0.312 2.38-1.32-0.33-2.64-0.66-4-1v2c-0.66-0.33-1.32-0.66-2-1v-9c-2.31-0.33-4.62-0.66-7-1 0.66 1.65 1.32 3.3 2 5h2v2c-3.3-0.33-6.6-0.66-10-1l-1 2c-0.99-0.33-1.98-0.66-3-1-0.33 1.65-0.66 3.3-1 5-0.675 0.133-1.35 0.266-2.05 0.402-1.34 0.265-1.34 0.265-2.7 0.535-1.32 0.261-1.32 0.261-2.67 0.527-2.21 0.459-4.39 0.969-6.58 1.54v5c-1.65-0.33-3.3-0.66-5-1v-5h-6c0.186 0.578 0.371 1.15 0.562 1.75 0.481 2.47 0.115 3.86-0.562 6.25-0.678-0.0722-1.36-0.144-2.05-0.219-8.37-0.835-16.6-1.53-24.9 0.219l-1-2c-4.95 0.495-4.95 0.495-10 1-0.33 1.98-0.66 3.96-1 6-0.71 0.049-1.42 0.098-2.15 0.148-1.38 0.112-1.38 0.112-2.79 0.227-0.917 0.0696-1.83 0.139-2.78 0.211-0.754 0.137-1.51 0.273-2.29 0.414l-1 2c-2.68 2.68-3.87 2.99-7.75 3.19-1.07-0.0619-2.14-0.124-3.25-0.188 1.48 0.99 1.48 0.99 3 2-3 1-3 1-5.38 0.5-2.88-0.548-4.81-0.223-7.62 0.5v-2c-1.98 1.48-1.98 1.48-4 3-0.66-0.33-1.32-0.66-2-1v-2c-1.95 0.595-1.95 0.595-4 2-0.413 1.01-0.825 2.02-1.25 3.06-1.75 2.94-1.75 2.94-3.57 3.59-3.7 0.507-6.57 0.287-10.2-0.648-0.99 0.66-1.98 1.32-3 2-0.681 0.144-1.36 0.289-2.06 0.438-2.33 0.45-2.33 0.45-3.94 3.56-0.373 1.66-0.707 3.33-1 5-1.13 3.4-2.13 4.05-5 6-0.33-1.32-0.66-2.64-1-4h-9c-0.33-0.99-0.66-1.98-1-3-1.98-0.733-3.98-1.39-6-2-2.25-1.07-4.48-2.17-6.69-3.31-5.11-2.6-10.3-5.08-15.5-7.42-3.35-1.5-6.68-3.04-10-4.58-1.11-0.512-2.21-1.02-3.36-1.55-0.811-0.375-1.62-0.75-2.46-1.14v-2c-0.99-0.33-1.98-0.66-3-1-1.19-2.56-1.19-2.56-2-5-1.48 0.495-1.48 0.495-3 1-4.82-3.74-4.82-3.74-5.33-7.34 0.0177-2.24 0.114-4.44 0.332-6.66 0.619-0.103 1.24-0.206 1.88-0.312 2.49-0.563 2.49-0.563 4.12-3.69 0.495-0.495 0.495-0.495 1-1-0.33-0.99-0.66-1.98-1-3h16v1h-5v2c0.578-0.165 1.15-0.33 1.75-0.5 2.25-0.5 2.25-0.5 6.25-0.5 0.495 0.99 0.495 0.99 1 2 2.97-0.495 2.97-0.495 6-1 0.33 0.66 0.66 1.32 1 2h7v2c3.47-0.99 3.47-0.99 7-2v-2h3c0.168-1.46 0.334-2.92 0.5-4.38 0.0928-0.812 0.186-1.62 0.281-2.46 0.252-2.13 0.252-2.13 0.219-4.16 0.626-0.277 1.25-0.554 1.9-0.84 1.23-0.543 1.23-0.543 2.48-1.1 0.812-0.36 1.62-0.719 2.46-1.09 1.4-0.63 2.79-1.29 4.16-1.97v-5c3.66-1.14 5.54-0.731 9 1 0.66-0.66 1.32-1.32 2-2 0.33 0.33 0.66 0.66 1 1v-1c3.63-0.33 7.26-0.66 11-1v-5c3.77-1.88 8.04-1.2 12.1-0.375 3.52 0.449 5.67-0.361 8.94-1.62h2v-2c3.3-0.66 6.6-1.32 10-2v-2c0.516-0.433 1.03-0.866 1.56-1.31 0.474-0.557 0.949-1.11 1.44-1.69-0.23-2.65-0.23-2.65-1-5 1.65-0.33 3.3-0.66 5-1 0.66 0.99 1.32 1.98 2 3 2.06 0.724 2.06 0.724 4 1-0.33-0.99-0.66-1.98-1-3h2c0.33-0.99 0.66-1.98 1-3 0.33 0.66 0.66 1.32 1 2h10l-3 6c0.33-0.495 0.66-0.99 1-1.5 3.18-2.38 6.1-1.69 10-1.5l-2 2c0.598-0.516 1.2-1.03 1.81-1.56 4.77-2.15 9.11-1.18 14.2-0.438v-6c3.88 0.875 3.88 0.875 5 2-0.0412-0.784-0.0825-1.57-0.125-2.38 0.125-2.62 0.125-2.62 2.12-4.62 0.743-0.773 0.743-0.773 1.5-1.56 1.5-1.44 1.5-1.44 3.5-2.44-0.66-0.66-1.32-1.32-2-2 2.67-0.667 5.33-1.33 8-2-0.33-0.66-0.66-1.32-1-2 0.99-0.495 0.99-0.495 2-1v-2c3.7-2.09 6.8-2.38 11-2.66 2.25-0.181 2.25-0.181 4.02-2.34v-3h3v-2c0-1 0-1 1-4 1.65 0.33 3.3 0.66 5 1v-3h2c0.33-0.99 0.66-1.98 1-3 1.18 0.0116 2.36 0.0232 3.58 0.0352 1.56 0.00938 3.11 0.0185 4.67 0.0273 0.777 0.00838 1.55 0.0168 2.36 0.0254 0.754 0.00322 1.51 0.00645 2.29 0.00977 0.691 0.00524 1.38 0.0105 2.09 0.0159 2.12-0.119 3.97-0.573 6.01-1.11h2v2c0.99 0.495 0.99 0.495 2 1-0.928 0.588-0.928 0.588-1.88 1.19-2.45 2.09-3.14 3.79-4.12 6.81 2.64-0.33 5.28-0.66 8-1 0.0825-1.07 0.165-2.14 0.25-3.25 0.817-4.09 1.61-5.18 4.75-7.75 0.66-0.66 1.32-1.32 2-2l4 2c-0.33-0.99-0.66-1.98-1-3 4.75-1.12 4.75-1.12 7 0z" fill="#966DEA"/>
<path transform="translate(1203,831)" d="m0 0h4c1.33 4 2.67 8 4 12 0.66-0.66 1.32-1.32 2-2 2.68-0.195 2.68-0.195 5.88-0.125 1.57 0.0271 1.57 0.0271 3.18 0.0547 1.46 0.0348 1.46 0.0348 2.95 0.0703 3.89 0.211 3.89 0.211 7-1 2.71-0.258 5.41-0.469 8.12-0.625 0.762-0.045 1.52-0.0901 2.31-0.136 5.32-0.273 10.3-0.1 15.6 0.761 0.495 1.98 0.495 1.98 1 4h2c0.33-1.32 0.66-2.64 1-4 2.58 21.4 4.94 42.7 5.66 64.3 0.0314 0.87 0.0628 1.74 0.0952 2.64 0.0239 0.77 0.0479 1.54 0.0725 2.33-0.0128 1.79-0.0128 1.79 1.17 2.77 0.262 2.08 0.46 4.17 0.633 6.27 0.0555 0.656 0.111 1.31 0.168 1.99 0.184 2.19 0.362 4.38 0.539 6.57 0.128 1.54 0.256 3.07 0.385 4.61 0.34 4.07 0.675 8.14 1.01 12.2 0.333 4.05 0.67 8.1 1.01 12.1 0.393 4.72 0.784 9.43 1.17 14.1 0.554 6.73 1.12 13.5 1.72 20.2 0.0947 1.05 0.189 2.1 0.287 3.18 0.17 1.87 0.343 3.74 0.521 5.6 0.37 4.07 0.586 8.05 0.543 12.1-0.453 3.72-0.453 3.72 1.01 4.95 0.388 3 0.718 5.99 1.01 9 0.0897 0.912 0.179 1.82 0.272 2.76 0.189 1.94 0.375 3.88 0.56 5.81 0.282 2.95 0.578 5.89 0.875 8.84 0.182 1.88 0.363 3.77 0.543 5.65 0.0895 0.874 0.179 1.75 0.271 2.65 0.657 7.15 1.13 14.3-3.53 20.3h-2v2h-4c-1.63 1.46-1.63 1.46-3 3h-2c-0.619 1.18-0.619 1.18-1.25 2.38-2.21 3.32-4.01 3.57-7.75 4.62-0.33 0.66-0.66 1.32-1 2-3.14 4.23-6.88 5.09-11.8 6.39-2.26 0.538-2.26 0.538-4.24 1.61-1.68-0.279-3.35-0.608-5-1v-2h3c-0.66-0.99-1.32-1.98-2-3-1.98 0.33-3.96 0.66-6 1v-2h-2c-0.33-2.31-0.66-4.62-1-7-1.32-0.33-2.64-0.66-4-1-0.0606-0.638-0.121-1.28-0.184-1.93-0.0838-0.826-0.168-1.65-0.254-2.5-0.0812-0.824-0.162-1.65-0.246-2.5-0.106-2.05-0.106-2.05-1.32-3.07-0.195-1.55-0.327-3.11-0.433-4.67-0.0704-1-0.141-2-0.213-3.04-0.0728-1.1-0.146-2.2-0.221-3.33-0.164-2.34-0.327-4.69-0.491-7.03-0.0844-1.23-0.169-2.47-0.256-3.74-1.24-18.2-2.57-36.3-4.45-54.4-0.829-8.14-1.36-16.3-1.56-24.4-0.132-4.52-0.575-8.86-1.32-13.3-1.09-6.93-1.75-13.8-2.31-20.8-0.106-1.26-0.212-2.51-0.321-3.81-0.277-3.3-0.551-6.6-0.822-9.9-0.384-4.67-0.772-9.34-1.16-14-0.208-2.48-0.413-4.95-0.614-7.43-0.0936-1.12-0.187-2.24-0.284-3.39-0.0806-0.98-0.161-1.96-0.244-2.97-0.286-2.62-0.767-5.14-1.3-7.72-0.282-2.84-0.534-5.68-0.754-8.53-0.0652-0.825-0.13-1.65-0.197-2.5-0.137-1.75-0.272-3.49-0.406-5.24-0.202-2.63-0.413-5.25-0.625-7.88-0.757-9.64-1.23-19.2-1.02-28.8zm4 51 1 2zm15 167 1 2zm1 14v5h1v-5h-1z" fill="#6180F4"/>
<path transform="translate(503,626)" d="m0 0h1v5h2v12h2c-0.0856 0.925-0.171 1.85-0.26 2.8-0.397 4.32-0.789 8.63-1.18 12.9-0.0704 0.782-0.141 1.56-0.213 2.37-0.848 9.48-1.57 18.9-1.93 28.4-0.291 6.59-1.02 13.1-1.79 19.6-1.72 15.1-3.01 30.1-4.26 45.2-0.426 5.14-0.856 10.3-1.29 15.4-0.142 1.75-0.142 1.75-0.287 3.53-0.0903 1.07-0.181 2.15-0.274 3.25-0.116 1.41-0.116 1.41-0.235 2.85-0.29 2.5-0.29 2.5-0.789 4.49-0.631 2.54-0.829 5.02-1.04 7.63-0.0936 1.13-0.187 2.26-0.284 3.43-0.147 1.84-0.147 1.84-0.297 3.71-0.105 1.28-0.21 2.56-0.318 3.88-0.223 2.73-0.444 5.46-0.663 8.19-0.274 3.41-0.551 6.82-0.83 10.2-1.47 18-2.82 36-4.07 53.9-1.43-2.75-2.3-4.91-2.62-8-0.0748-0.66-0.15-1.32-0.227-2-0.148-2-0.148-4-0.148-6-0.99-0.99-0.99-0.99-2-2v-1c-1.14 0.0309-1.14 0.0309-2.31 0.0625-2.69-0.0625-2.69-0.0625-5.69-1.06-1.95 1.95-2.85 3.53-4 6h-2c-0.33 0.66-0.66 1.32-1 2-1.5 1.63-1.5 1.63-3 3h-1c0.0838 0.592 0.168 1.18 0.254 1.79 0.555 4.31 0.978 7.96-0.254 12.2h-6v-4c-2.31-0.66-4.62-1.32-7-2-0.33-1.65-0.66-3.3-1-5-0.619 0.186-1.24 0.371-1.88 0.562-2.12 0.438-2.12 0.438-4.12-0.562v4c-1.11 0.124-2.23 0.247-3.38 0.375-3.66 0.272-3.66 0.272-5.62 2.62-0.33-0.66-0.66-1.32-1-2-0.99 2.31-1.98 4.62-3 7h-1c-0.228-1.95-0.456-3.91-0.684-5.86-0.246-2.09-0.246-2.09-0.867-3.81-0.637-3.31-0.27-6.47 0.0386-9.79 0.0626-0.732 0.125-1.46 0.19-2.22 0.205-2.38 0.42-4.76 0.634-7.14 0.143-1.64 0.285-3.28 0.427-4.92 0.35-4.03 0.707-8.06 1.07-12.1 0.365-4.11 0.719-8.23 1.07-12.3 0.228-2.63 0.459-5.27 0.691-7.9 0.303-3.45 0.59-6.9 0.871-10.3 0.584-7.01 1.26-14 1.93-21 0.131-1.36 0.262-2.72 0.392-4.08 0.548-5.7 1.1-11.4 1.65-17.1 0.34-3.52 0.678-7.03 1.01-10.5 0.187-1.95 0.377-3.9 0.567-5.85 0.731-7.64 1.3-15.3 1.73-22.9 0.268-3.05 0.268-3.05 1.27-6.05 0.02-1.35-0.00761-2.71-0.0625-4.06-0.0671-5.75 0.601-11.3 1.28-17 0.711-6.03 1.19-12 1.54-18.1 0.246-2.82 0.246-2.82 0.777-4.91 0.555-2.26 0.493-4.21 0.406-6.53-0.0713-5.32 0.832-10.2 2.06-15.4l1 2c1.32-0.33 2.64-0.66 4-1 0.217-0.897 0.217-0.897 0.438-1.81 0.45-1.75 0.991-3.47 1.56-5.19h13v-2c3.46-3 3.46-3 6-3 0.33-0.99 0.66-1.98 1-3 0.33-0.33 0.66-0.66 1-1-0.66-0.66-1.32-1.32-2-2 2.55-2.55 4.15-2.53 7.69-3.06 1.07-0.164 2.14-0.327 3.25-0.496 1.01-0.146 2.02-0.291 3.07-0.441 0.775-0.115 1.55-0.229 2.35-0.348 1.55-0.226 3.1-0.441 4.65-0.652v-2c2.97 0.495 2.97 0.495 6 1 0.495 1.49 0.495 1.49 1 3 0.33-1.65 0.66-3.3 1-5zm-56 35 1 2zm-2 22 1 2zm-11 127 1 2z" fill="#EA3360"/>
<path transform="translate(731 397)" d="m0 0c0.72-0.00219 1.44-0.00438 2.18-0.00664 2.39-0.00231 4.77 0.024 7.16 0.0508 1.68 0.00493 3.36 0.00823 5.04 0.00996 4.45 0.00961 8.89 0.044 13.3 0.0829 3.55 0.0268 7.1 0.0357 10.6 0.0437 19.5 0.0451 39 0.321 58.4 1.29v1c6.6 0.33 13.2 0.66 20 1 0.33 0.66 0.66 1.32 1 2-0.99 0.121-1.98 0.242-3 0.367-6.78 0.852-13.4 1.75-20 3.63 0.639 0.227 1.28 0.454 1.94 0.688 2.06 1.31 2.06 1.31 2.88 3.81 0.188 2.5 0.188 2.5-0.812 4.5 0.66 0.33 1.32 0.66 2 1l-4 1c-0.33 2.31-0.66 4.62-1 7-0.99 0.33-1.98 0.66-3 1-0.99 1.49-0.99 1.49-2 3-2.62 0.188-2.62 0.188-5 0-0.33 1.32-0.66 2.64-1 4h-4l2 4c-0.99 0.33-1.98 0.66-3 1-0.733 2.02-0.733 2.02-1 4h5c0.0825 0.619 0.165 1.24 0.25 1.88 0.536 2.27 0.536 2.27 2.56 3.12 0.722 0.33 1.44 0.66 2.19 1 2.25 1.94 2.25 1.94 4 4v3c-0.638-0.0116-1.28-0.0232-1.93-0.0352-0.826-0.00902-1.65-0.018-2.5-0.0273-0.824-0.0116-1.65-0.0232-2.5-0.0352-2.06-0.135-2.06-0.135-3.07 1.1-2.77 0.155-5.51 0.247-8.28 0.297-0.868 0.0197-1.74 0.0393-2.63 0.0596-2.88 0.0641-5.77 0.121-8.65 0.178-1.99 0.043-3.99 0.0864-5.98 0.13-5.26 0.114-10.5 0.223-15.8 0.33-5.36 0.111-10.7 0.227-16.1 0.342-10.5 0.226-21.1 0.446-31.6 0.662 0.00222 0.622 0.00444 1.24 0.00673 1.88 0.0224 6.57 0.0373 13.1 0.0482 19.7 0.00498 2.44 0.0118 4.88 0.0205 7.32 0.0815 23.4 0.0815 23.4-0.4 34.9-0.0233 0.747-0.0466 1.49-0.0705 2.26-0.359 6.99-2.7 12-7.61 16.9-7.9 6.3-14.9 8.9-25 8-8.2-1.74-16.5-7.12-21.1-14.1-2.91-4.99-3.08-10.1-3.23-15.8-0.0197-0.674-0.0393-1.35-0.0596-2.04-0.0635-2.21-0.121-4.43-0.178-6.64-0.043-1.54-0.0865-3.08-0.13-4.62-0.114-4.04-0.223-8.08-0.33-12.1-0.111-4.13-0.227-8.26-0.342-12.4-0.225-8.09-0.445-16.2-0.662-24.3-0.987 0.0348-1.97 0.0696-2.99 0.105-1.28 0.0271-2.56 0.0541-3.88 0.082-1.91 0.0522-1.91 0.0522-3.87 0.105-1.08-0.0967-2.15-0.193-3.26-0.293-0.66-0.99-1.32-1.98-2-3 0.99-0.66 1.98-1.32 3-2-0.99-0.66-1.98-1.32-3-2 0.812-1.94 0.812-1.94 2-4 1.49-0.495 1.49-0.495 3-1-0.33-2.64-0.66-5.28-1-8 0.619-0.289 1.24-0.577 1.88-0.875 2.26-1.06 2.26-1.06 4.12-3.12 1.32-0.697 2.65-1.37 4-2v-4c2.97-0.66 5.94-1.32 9-2v-2c1.65-0.33 3.3-0.66 5-1-0.33-0.66-0.66-1.32-1-2 1.45-0.464 1.45-0.464 2.94-0.938 2.9-0.758 2.9-0.758 4.06-2.06 5.53-0.235 5.53-0.235 8 1v-9c3.47-0.495 3.47-0.495 7-1l-4-2c3.07-1.53 5.7-0.55 9 0 0.33-0.66 0.66-1.32 1-2 2.89-1.44 5.53-1.02 8.71-0.938 2.36-0.0645 4.08-0.218 6.29-1.06 0.552-0.666 1.1-1.33 1.67-2.02 3.23-2.75 5.33-2.47 9.53-2.45z" fill="#FC6834"/>
<path transform="translate(664,1174)" d="m0 0c6.88 0.875 6.88 0.875 8 2 0.0718 1.52 0.0839 3.04 0.0625 4.56-0.00902 0.826-0.018 1.65-0.0273 2.5-0.0174 0.957-0.0174 0.957-0.0352 1.93 0.33-0.33 0.66-0.66 1-1 0.99-0.33 1.98-0.66 3-1 1.22-2.5 1.22-2.5 2-5h3c2.38 2.85 3.06 4.32 2.74 8.05-0.286 1.08-0.572 2.15-0.867 3.26-0.3 1.14-0.601 2.28-0.91 3.46-1.15 3.84-2.46 7.51-3.96 11.2-0.677 2-1.35 4-2 6-1.65-0.33-3.3-0.66-5-1 0.0825 1.05 0.165 2.1 0.25 3.19-0.296 4.51-1.5 5.39-4.25 8.81-0.422 2.03-0.422 2.03-0.562 4.19-0.144 1.26-0.289 2.52-0.438 3.81-0.99 0.66-1.98 1.32-3 2v3h-3c-0.66 2.31-1.32 4.62-2 7h-3c-0.33 2.64-0.66 5.28-1 8-0.99 0.33-1.98 0.66-3 1v2c-1.5 1.62-1.5 1.62-3 3 0.33 0.66 0.66 1.32 1 2-0.33 0.66-0.66 1.32-1 2-7.45 0.366-7.45 0.366-9.88-1.25-3.12-4.86-3.12-4.86-3.12-7.75-0.66-0.33-1.32-0.66-2-1v-2c2.97-0.495 2.97-0.495 6-1v-1c-1.65-0.33-3.3-0.66-5-1-0.33 0.66-0.66 1.32-1 2h-4c-0.33-0.99-0.66-1.98-1-3 3.63-0.33 7.26-0.66 11-1h-2v-2c-0.99 0.66-1.98 1.32-3 2-3.69-0.375-3.69-0.375-7-1l-1 4c-1.81 0.625-1.81 0.625-4 1-1.49-0.99-1.49-0.99-3-2v-3c-1.13-0.124-2.27-0.247-3.44-0.375-1.18-0.206-2.35-0.412-3.56-0.625l-1-2c-1.49 0.495-1.49 0.495-3 1 0.66 1.65 1.32 3.3 2 5l-6.15 0.586c-0.915 0.205-0.915 0.205-1.85 0.414l-1 2c-4.47 4.82-4.47 4.82-8 6 0.0522 0.922 0.0522 0.922 0.105 1.86 0.0271 0.808 0.0541 1.62 0.082 2.45 0.0522 1.2 0.0522 1.2 0.105 2.43-0.293 2.26-0.293 2.26-1.62 4.05-1.68 1.21-1.68 1.21-4.68 1.21-0.495 1.48-0.495 1.48-1 3-6.75 0.125-6.75 0.125-9-1-0.495 1.48-0.495 1.48-1 3-3.56 1.19-3.56 1.19-7 2v5c0.99 0.495 0.99 0.495 2 1-0.33 1.65-0.66 3.3-1 5-0.784 0.103-1.57 0.206-2.38 0.312-2.96 0.463-2.96 0.463-4.62 3.69 0.33 0.99 0.66 1.98 1 3l-3 3 2 2c-0.99 0.66-1.98 1.32-3 2-0.362 1.33-0.697 2.66-1 4-0.99 0.495-0.99 0.495-2 1v2h-2v-2c-1.65 0.33-3.3 0.66-5 1-0.33-0.99-0.66-1.98-1-3-2-1.21-2-1.21-4-2v-3c-0.978-1.02-1.98-2.02-3-3l-2-4c-1.92-2.73-1.92-2.73-4-5h-2v-2h-2c-0.257-0.58-0.514-1.16-0.779-1.76-1.17-2.65-2.35-5.29-3.53-7.93-0.404-0.912-0.808-1.82-1.22-2.76-1.95-4.35-3.95-8.49-6.46-12.5-0.597-1.42-1.16-2.86-1.69-4.31-2.89-7.48-6.67-14.6-10.3-21.7 0.495-0.495 0.495-0.495 1-1 2.34 0.287 4.67 0.619 7 1 0.33 0.99 0.66 1.98 1 3 1.32-0.66 2.64-1.32 4-2-0.495-1.48-0.495-1.48-1-3 0.99-0.495 0.99-0.495 2-1-0.124-1.11-0.124-1.11-0.25-2.25 0.25-2.75 0.25-2.75 2-5.06 2.25-1.69 2.25-1.69 6.25-1.69 0.66-0.66 1.32-1.32 2-2 1.67 0.324 3.33 0.659 5 1 2.95-0.347 5.34-0.669 8-2 0.658-3.03 0.658-3.03 1-6 2.38-0.625 2.38-0.625 5-1 0.66 0.66 1.32 1.32 2 2 2.05-0.409 2.05-0.409 4-1 0.33 0.33 0.66 0.66 1 1 1.67-0.308 3.34-0.644 5-1h3c0.66-0.66 1.32-1.32 2-2 0.949 0.0412 1.9 0.0825 2.88 0.125 3.2 0.239 3.2 0.239 4.88-2 3.47-3.28 7.63-3.46 12.2-4.12 0.66-1.98 1.32-3.96 2-6 3.63-0.33 7.26-0.66 11-1l1 2c1.64-0.247 1.64-0.247 3.31-0.5 7.83-0.958 15.2-1.16 22.7 1.5v-8h6c0.495 2.47 0.495 2.47 1 5h3c0.0773-0.624 0.155-1.25 0.234-1.89 0.766-2.11 0.766-2.11 2.66-3.16 7.92-2.36 7.92-2.36 12.1-1.95 0.33-1.65 0.66-3.3 1-5 3.68-1.18 7.17-1.07 11-1h1c-0.516-0.598-1.03-1.2-1.56-1.81-0.474-0.722-0.949-1.44-1.44-2.19 0.33-0.99 0.66-1.98 1-3z" fill="#6E7FF9"/>
<path transform="translate(505,497)" d="m0 0v3c0.592 0.0258 1.18 0.0516 1.79 0.0781 5.23 0.375 8.45 0.933 12.2 4.92 2.48 7.44 0.838 16.2 0.0625 23.9-0.087 0.923-0.174 1.85-0.264 2.8-0.668 6.82-0.668 6.82-1.3 9.26-0.623 2.59-0.791 5.1-0.973 7.76-0.367 5.12-0.752 10.2-1.17 15.4-0.0577 0.705-0.115 1.41-0.175 2.14-1.13 13.8-2.3 27.6-3.61 41.4-0.129 1.36-0.256 2.72-0.383 4.08-0.175 1.88-0.356 3.76-0.538 5.63-0.101 1.06-0.203 2.12-0.307 3.21-0.341 2.5-0.341 2.5-1.34 4.5-0.233 2.88-0.42 5.74-0.562 8.62-0.0648 1.2-0.0648 1.2-0.131 2.43-0.106 1.98-0.207 3.96-0.307 5.95-0.66 0.33-1.32 0.66-2 1v-12c-1.65 0.33-3.3 0.66-5 1-0.99-0.99-0.99-0.99-2-2 0.66-0.33 1.32-0.66 2-1-2.97-0.99-2.97-0.99-6-2v2c-6.33 1.85-12.4 3.38-19 4v2c0 3 0 3-1.5 4.54-0.961 0.756-0.961 0.756-1.94 1.53-2.72 2.1-2.72 2.1-4.56 4.94-1.42 0.0272-2.83 0.0465-4.25 0.0625-1.18 0.0174-1.18 0.0174-2.39 0.0352-2.27-0.0938-4.19-0.465-6.36-1.1-0.144 0.598-0.289 1.2-0.438 1.81-0.45 1.75-0.991 3.47-1.56 5.19-2.06 0.688-2.06 0.688-4 1-1.6-3.21-0.942-6.62-0.75-10.1 0.0445-0.849 0.0889-1.7 0.135-2.57 0.511-8.83 1.3-17.6 2.12-26.4 0.0656-0.722 0.131-1.44 0.199-2.19 0.189-2.07 0.385-4.13 0.582-6.2 0.114-1.2 0.228-2.41 0.346-3.65 0.373-2.85 0.373-2.85 1.37-4.85 0.201-2.23 0.346-4.47 0.465-6.7 0.0787-1.39 0.157-2.78 0.236-4.16 0.118-2.17 0.234-4.34 0.348-6.51 0.458-8.59 1.2-17 2.51-25.5 0.595-4.18 0.849-8.34 1.01-12.6 0.0764-1.61 0.153-3.23 0.23-4.84 0.104-2.33 0.204-4.66 0.295-6.98 0.0834-2.08 0.184-4.16 0.287-6.24 0.049-1.19 0.098-2.37 0.148-3.59 0.507-3.09 1.01-4.06 3.48-5.91 0.33 0.99 0.66 1.98 1 3 0.33-1.32 0.66-2.64 1-4h2c0.0412-0.928 0.0825-1.86 0.125-2.81 0.875-3.19 0.875-3.19 3.62-4.94 1.61-0.619 1.61-0.619 3.25-1.25 0.784-0.392 1.57-0.784 2.38-1.19 3.03-0.939 5.55-0.901 8.7-0.824 4.05 0.0247 7.47-0.892 10.9-2.99 0.33-0.66 0.66-1.32 1-2 3.34-0.994 5.69-1.1 9 0zm-55 134 1 2z" fill="#FC6834"/>
<path transform="translate(483,855)" d="m0 0c0.99 0.33 1.98 0.66 3 1-0.66 0.33-1.32 0.66-2 1 0.66 0.66 1.32 1.32 2 2-0.66 0.99-1.32 1.98-2 3 0.66 0.33 1.32 0.66 2 1 0.379 2.11 0.379 2.11 0.562 4.75 0.192 2.61 0.389 5.05 1.01 7.6 0.474 2.91 0.196 4.84-0.404 7.71-1.46 8.04-2.01 16.1-2.6 24.3-0.192 2.66-0.395 5.32-0.599 7.98-0.666 8.91-1.19 17.7-0.969 26.7 8.25 2.24 16 0.679 24-2 0.66-0.66 1.32-1.32 2-2 2.5-0.312 2.5-0.312 5 0 0.99 1.49 0.99 1.49 2 3h3c-0.0954 0.568-0.191 1.14-0.289 1.72-0.776 5.41-0.57 9.14 1.29 14.3-0.577 0.124-1.15 0.247-1.75 0.375-2.27 0.631-4.18 1.51-6.25 2.62 0.33 0.66 0.66 1.32 1 2h-3c-0.66 1.98-1.32 3.96-2 6h-4c-0.65 0.928-0.65 0.928-1.31 1.88-2.4 3.03-5.01 3.29-8.69 4.12v1c-3.47 0.495-3.47 0.495-7 1-0.495 1.49-0.495 1.49-1 3-6.75 1.12-6.75 1.12-9 0-0.619 0.681-0.619 0.681-1.25 1.38-1.75 1.62-1.75 1.62-3.88 2.44-2.24 1.11-2.24 1.11-2.62 4.31-0.0825 0.949-0.165 1.9-0.25 2.88 0.99 0.33 1.98 0.66 3 1-0.66 0.66-1.32 1.32-2 2-0.167 2.58-0.167 2.58 0 5-3.57 1.38-5.84 0.909-9.25-0.5-7.25-3.49-13.2-8.69-18.8-14.5-0.846-0.825-1.69-1.65-2.56-2.5-3.91-4.01-7.09-8.28-10-13.1-0.868-1.39-0.868-1.39-1.75-2.82-4.11-8.85-5.21-17.8-5.12-27.5 0.00395-1.14 0.0079-2.29 0.012-3.47 0.191-12.5 1.28-24.9 2.36-37.3 0.0911-1.04 0.182-2.09 0.276-3.16 0.264-2.98 0.537-5.96 0.814-8.94 0.124-1.36 0.124-1.36 0.25-2.75 0.12-1.25 0.12-1.25 0.242-2.52 0.0688-0.728 0.138-1.46 0.209-2.21 0.272-1.8 0.272-1.8 1.27-3.8h2c0.33 1.32 0.66 2.64 1 4 0.928-0.99 0.928-0.99 1.88-2 2.12-2 2.12-2 4.12-2 2-0.32 4-0.653 6-1 0.33-0.99 0.66-1.98 1-3 3.46-0.495 3.46-0.495 7-1 0.34 1.42 0.34 1.42 0.688 2.88 1 3.32 1 3.32 3.94 4.5 0.784 0.206 1.57 0.413 2.38 0.625v4h6c0.103-5.13 0.0359-9.95-1-15h3c-0.495-0.99-0.495-0.99-1-2 0.949-0.392 1.9-0.784 2.88-1.19 3.53-2.05 3.94-3.06 5.12-6.81 3.22-1.61 6.57-0.611 10 0zm-57 41 1 3z" fill="#D72A7E"/>
<path transform="translate(1249,706)" d="m0 0h1c1.5 8.19 2.47 16.3 3.04 24.6 0.125 1.72 0.125 1.72 0.253 3.48 0.263 3.62 0.519 7.25 0.774 10.9 0.259 3.65 0.52 7.3 0.785 10.9 0.164 2.26 0.324 4.52 0.481 6.78 0.0736 1.02 0.147 2.04 0.223 3.1 0.0942 1.34 0.0942 1.34 0.19 2.71 0.262 2.56 0.74 5.01 1.26 7.53 0.258 2.63 0.486 5.25 0.684 7.89 0.0599 0.767 0.12 1.53 0.181 2.32 0.194 2.49 0.383 4.98 0.572 7.48 0.132 1.72 0.263 3.43 0.396 5.15 0.199 2.59 0.397 5.17 0.595 7.76 0.397 5.19 0.813 10.4 1.25 15.6 0.147 1.79 0.147 1.79 0.297 3.61 0.181 2.19 0.366 4.38 0.556 6.57 0.0781 0.966 0.156 1.93 0.237 2.93 0.0699 0.826 0.14 1.65 0.212 2.5 0.0227 2.27-0.325 4.08-0.978 6.24h-2c-0.33-0.99-0.66-1.98-1-3-11.3-0.994-22-1.65-33 2v-2c-1.05 0.165-2.1 0.33-3.19 0.5-3.81 0.5-3.81 0.5-6.56 0.438-2.54-0.129-2.54-0.129-5.25 2.06-0.124-0.722-0.247-1.44-0.375-2.19-0.547-2.83-0.547-2.83-1.69-5.44-0.938-2.38-0.938-2.38-0.938-5.38-1.48 0.495-1.48 0.495-3 1-0.66-0.33-1.32-0.66-2-1-0.502-2.87-0.502-2.87-0.852-6.66-0.0638-0.664-0.128-1.33-0.193-2.01-0.202-2.13-0.391-4.26-0.58-6.39-0.135-1.44-0.27-2.88-0.406-4.32-0.333-3.54-0.654-7.08-0.969-10.6h-1c-0.0344-0.641-0.0688-1.28-0.104-1.94-1.6-28.7-4.31-57.4-6.9-86.1h3v4h2.31c5.69 0 5.69 0 7.38 1.5 0.433 0.495 0.866 0.99 1.31 1.5 0.33-1.32 0.66-2.64 1-4 2.97 0.33 5.94 0.66 9 1v-2c2.33-0.0424 4.67-0.0409 7 0 0.33 0.33 0.66 0.66 1 1 0.33-0.66 0.66-1.32 1-2h3c0.33-0.66 0.66-1.32 1-2 3.47-1.16 6.36-1.07 10-1-0.99 0.66-1.98 1.32-3 2 0.99 0.33 1.98 0.66 3 1 0.949-0.516 1.9-1.03 2.88-1.56 3.12-1.44 3.12-1.44 6-0.625 0.701 0.392 1.4 0.784 2.12 1.19v-7z" fill="#B841B0"/>
<path transform="translate(782,902)" d="m0 0c4.05 1.42 7.13 3.38 10.6 5.94 0.929 0.69 1.86 1.38 2.82 2.09 0.865 0.651 1.73 1.3 2.62 1.97 0.772 0.538 1.54 1.08 2.34 1.63 0.548 0.452 1.1 0.905 1.66 1.37v2c0.574 0.26 1.15 0.521 1.74 0.789 2.44 1.3 4.35 2.79 6.45 4.59 0.695 0.585 1.39 1.17 2.11 1.77 1.71 1.85 1.71 1.85 2.2 3.95 0.253 0.94 0.253 0.94 0.512 1.9 0.576 0.282 1.15 0.565 1.75 0.855 3.33 1.69 5.14 4.52 7.32 7.46 0.434 0.569 0.868 1.14 1.31 1.72 6.62 8.78 6.62 8.78 6.62 12h2c3.28 6.3 6.2 12.7 8.88 19.3 0.858 2.09 1.76 4.17 2.68 6.24 3.88 9.44 6.02 18.2 7.04 28.3 0.0464 3.03 0.0464 3.03 1.39 4.18 0.0727 2.35 0.0837 4.71 0.0625 7.06-0.00902 1.29-0.018 2.58-0.0273 3.91-0.0116 0.999-0.0232 2-0.0352 3.03-1.98 0.66-3.96 1.32-6 2-0.33-0.99-0.66-1.98-1-3l-3 3v-3c-2.88 0.4-4.65 0.715-6.94 2.56-2.81 1.96-4.72 1.8-8.06 1.44-0.66-0.66-1.32-1.32-2-2v-2c-1.98-0.66-3.96-1.32-6-2v3h-7v-3h-9v3h-4c-0.186-1.02-0.186-1.02-0.375-2.06-0.726-3.41-1.45-6.65-2.62-9.94-1.32-0.684-2.66-1.35-4-2-1.58-3.09-2.71-6.13-3.79-9.41-6.63-19.6-20.5-38.9-39.2-48.6-9.71-4.78-9.71-4.78-20-8v-3c2.65-1.08 5.28-2.09 8-3l-2-2c1.06-1.5 1.06-1.5 3-3 3.69-0.188 3.69-0.188 7 0v-3c7.62-2 7.62-2 11-2 0.336-0.967 0.336-0.967 0.68-1.95 1.32-2.05 1.32-2.05 3.7-2.66 0.905-0.0464 1.81-0.0928 2.74-0.141 0.91-0.0567 1.82-0.113 2.76-0.172 0.699-0.0258 1.4-0.0516 2.12-0.0781l-2-2c1.77-2.25 2.58-2.95 5.48-3.29 0.893 0.0348 1.79 0.0696 2.71 0.105 0.901 0.0271 1.8 0.0541 2.73 0.082 1.03 0.0522 1.03 0.0522 2.08 0.105l-1-2c-0.301-1.47-0.545-2.95-0.75-4.44-0.119-0.782-0.237-1.56-0.359-2.37 0.109-2.19 0.109-2.19 1.59-3.85 0.5-0.442 1-0.884 1.52-1.34v-2z" fill="#B742B1"/>
<path transform="translate(1202,409)" d="m0 0h3c1.82 1.24 1.82 1.24 3.69 2.88 0.623 0.534 1.25 1.07 1.89 1.62 1.43 1.51 1.43 1.51 1.43 3.51h2c1.8 2.49 1.8 2.49 3.88 5.88 0.678 1.09 1.36 2.18 2.05 3.3 5.49 9.8 7.09 19.3 8.2 30.3 0.165 1.55 0.331 3.1 0.497 4.66 0.487 4.61 0.94 9.23 1.38 13.8 0.0976 1.02 0.0976 1.02 0.197 2.07 0.399 4.22 0.767 8.45 1.12 12.7 0.133 1.57 0.133 1.57 0.268 3.17 0.392 5.23 0.421 9.93-0.581 15.1h2c0.61 6.02 1.13 11.9 1 18h-4c-0.66-2.97-1.32-5.94-2-9-0.66 1.98-1.32 3.96-2 6-0.784-0.0412-1.57-0.0825-2.38-0.125-2.79-0.162-2.79-0.162-4.62 2.12h-4c-0.33 0.33-0.66 0.66-1 1 0.99 0.99 0.99 0.99 2 2-0.66 1.32-1.32 2.64-2 4h-4c-0.567 1.7-1.12 3.41-1.62 5.12-1.38 1.88-1.38 1.88-4.81 2.75-3.56 0.125-3.56 0.125-6.56-1.88-0.688-2.12-0.688-2.12-1-4-0.33 0.66-0.66 1.32-1 2h-3c-0.99 0.99-0.99 0.99-2 2h-3c-0.99 0.99-0.99 0.99-2 2v-2h-2c-0.103 0.846-0.206 1.69-0.312 2.56-0.77 3.85-2.05 6.88-3.69 10.4-2.46-3.92-2.84-8.28-3.46-12.8-0.127-0.909-0.254-1.82-0.384-2.75-1.72-13-2.63-26-3.62-39.1-0.32-4.19-0.65-8.39-0.978-12.6-0.255-3.26-0.508-6.52-0.758-9.77-0.516-6.69-1.09-13.4-1.8-20h2c0.33 1.65 0.66 3.3 1 5-0.33-2.64-0.66-5.28-1-8 1.48-0.495 1.48-0.495 3-1-0.495-1.49-0.495-1.49-1-3-0.66-0.33-1.32-0.66-2-1v-3c1.32 0.33 2.64 0.66 4 1 0.33-1.32 0.66-2.64 1-4h2c0.33-0.66 0.66-1.32 1-2h2c0.433-0.474 0.866-0.949 1.31-1.44 2.13-1.98 3.85-2.18 6.69-2.56-0.66-0.66-1.32-1.32-2-2 0.99-0.33 1.98-0.66 3-1 0.124-1.22 0.247-2.43 0.375-3.69 0.32-2.71 0.717-4.53 1.81-7.06 0.268-0.743 0.536-1.49 0.812-2.25-0.65-1.34-1.32-2.68-2-4 0.761-2.59 1.6-3.7 3.75-5.31 3.01-0.921 5.2-0.337 8.25 0.312z" fill="#EA3360"/>
<path transform="translate(503,626)" d="m0 0h1v5h2v12h2c-0.0856 0.925-0.171 1.85-0.26 2.8-0.397 4.32-0.789 8.63-1.18 12.9-0.0704 0.782-0.141 1.56-0.213 2.37-0.785 8.77-1.52 17.5-1.85 26.3-0.341 9-1.34 17.9-2.4 26.8-0.127 1.07-0.254 2.15-0.385 3.25-0.188 1.58-0.188 1.58-0.379 3.19-0.476 4.59-0.739 9.19-0.979 13.8-0.119 0.819-0.238 1.64-0.361 2.48-0.99 0.495-0.99 0.495-2 1v-10h-2v2c-0.99-0.33-1.98-0.66-3-1-1.33-0.342-2.66-0.678-4-1-0.66 0.99-1.32 1.98-2 3-0.99 0.66-1.98 1.32-3 2 0.0412 0.784 0.0825 1.57 0.125 2.38-0.125 2.62-0.125 2.62-2.12 4.94-4 2.25-6.46 2-11 1.69-0.495 1.49-0.495 1.49-1 3-0.804-0.495-1.61-0.99-2.44-1.5-4.38-1.85-7.89-1.78-12.6-1.5l-1-2c-1.32 1.65-2.64 3.3-4 5-0.33-0.33-0.66-0.66-1-1-0.66 4.62-1.32 9.24-2 14h-3c-1.71 1.94-1.71 1.94-3 4-1.49-1.26-1.49-1.26-3-3-0.0628-3 0.0482-5.75 0.328-8.72 0.0685-0.854 0.137-1.71 0.207-2.59 0.223-2.73 0.469-5.46 0.714-8.19 0.151-1.84 0.301-3.68 0.449-5.52 0.146-1.75 0.293-3.51 0.441-5.26 0.0699-0.828 0.14-1.66 0.212-2.51 0.292-3.23 0.617-6.12 1.65-9.21 0.02-1.35-0.00761-2.71-0.0625-4.06-0.0671-5.75 0.601-11.3 1.28-17 0.711-6.03 1.19-12 1.54-18.1 0.246-2.82 0.246-2.82 0.777-4.91 0.555-2.26 0.493-4.21 0.406-6.53-0.0713-5.32 0.832-10.2 2.06-15.4l1 2c1.32-0.33 2.64-0.66 4-1 0.217-0.897 0.217-0.897 0.438-1.81 0.45-1.75 0.991-3.47 1.56-5.19h13v-2c3.46-3 3.46-3 6-3 0.33-0.99 0.66-1.98 1-3 0.33-0.33 0.66-0.66 1-1-0.66-0.66-1.32-1.32-2-2 2.55-2.55 4.15-2.53 7.69-3.06 1.07-0.164 2.14-0.327 3.25-0.496 1.01-0.146 2.02-0.291 3.07-0.441 0.775-0.115 1.55-0.229 2.35-0.348 1.55-0.226 3.1-0.441 4.65-0.652v-2c1.98 0.33 3.96 0.66 6 1 0.495 1.49 0.495 1.49 1 3 0.33-1.65 0.66-3.3 1-5zm-56 35 1 2zm-2 22 1 2z" fill="#F93F4C"/>
<path transform="translate(795,1010)" d="m0 0c1.93 0.785 1.93 0.785 4 2 1.19 3.44 1.19 3.44 2 7 0.33 0.99 0.66 1.98 1 3-0.33 0.66-0.66 1.32-1 2h4v-3c6.75-1.12 6.75-1.12 9 0v3h7v-3c2.31-0.25 2.31-0.25 5 0 3 3.21 3 3.21 3 5 2.87 0.25 2.87 0.25 6 0 0.495-0.495 0.99-0.99 1.5-1.5 1.5-1.5 1.5-1.5 4.56-1.69 0.969 0.0619 1.94 0.124 2.94 0.188 2.07 0.149 2.07 0.149 4-1 0.495 1.49 0.495 1.49 1 3 0.619-0.165 1.24-0.33 1.88-0.5 2.12-0.5 2.12-0.5 4.12-0.5 0.927 21.8-3.01 42-10.2 62.6-1.32 3.79-2.57 7.6-3.83 11.4-0.5 1.5-1 3-1.5 4.5-0.249 0.746-0.498 1.49-0.754 2.26l-7.75 23.2c-1.5-1.25-1.5-1.25-3-3v-4c-2.93-0.224-2.93-0.224-5 1-0.99 0.33-1.98 0.66-3 1-0.33 0.66-0.66 1.32-1 2v-7c-1.14 0.557-1.14 0.557-2.31 1.12-0.887 0.289-1.77 0.578-2.69 0.875-0.99-0.66-1.98-1.32-3-2-2.68-0.205-2.68-0.205-5.56-0.0625-5.24 0.16-5.24 0.16-7.44-0.938v2c-0.639-0.33-1.28-0.66-1.94-1-3.51-1.7-7.32-0.773-11.1 0-1.49 0.99-1.49 0.99-3 2 0-1.66 0.0113-3.32 0.0703-4.97 0.0526-2.01-0.00656-4.02-0.0703-6.03-0.66-0.66-1.32-1.32-2-2h-2l-1 2c-1.44-2.27-2.12-3.41-1.57-6.09 0.331-0.794 0.663-1.59 1-2.41 2.18-5.5 4.18-11 6.12-16.6 0.439-1.25 0.439-1.25 0.886-2.53 2.68-7.65 5.32-15.3 7.61-23.1 0.481-1.6 0.481-1.6 0.973-3.23 2.73-10.6 3.24-21 3.09-31.8-0.00902-1.28-0.018-2.55-0.0273-3.87-0.0233-3.11-0.056-6.21-0.0977-9.32z" fill="#956DEA"/>
<path transform="translate(1203,831)" d="m0 0h4c1.33 4 2.67 8 4 12 0.66-0.66 1.32-1.32 2-2 2.68-0.195 2.68-0.195 5.88-0.125 1.57 0.0271 1.57 0.0271 3.18 0.0547 1.46 0.0348 1.46 0.0348 2.95 0.0703 3.89 0.211 3.89 0.211 7-1 2.71-0.258 5.41-0.469 8.12-0.625 0.762-0.045 1.52-0.0901 2.31-0.136 5.32-0.273 10.3-0.1 15.6 0.761 0.495 1.98 0.495 1.98 1 4h2c0.33-1.32 0.66-2.64 1-4 2.58 21.4 4.94 42.7 5.66 64.3 0.0314 0.87 0.0628 1.74 0.0952 2.64 0.0239 0.77 0.0479 1.54 0.0725 2.33-0.0128 1.79-0.0128 1.79 1.17 2.77 0.264 2.24 0.461 4.5 0.625 6.75 0.0954 1.23 0.191 2.46 0.289 3.73 0.0753 3.08-0.156 5.55-0.914 8.52h-1c-0.193-0.638-0.387-1.28-0.586-1.93-0.26-0.826-0.521-1.65-0.789-2.5-0.255-0.824-0.51-1.65-0.773-2.5-0.66-2.24-0.66-2.24-2.85-3.07-0.33 0.66-0.66 1.32-1 2-0.33-0.66-0.66-1.32-1-2-2.57 2.57-2.54 4.48-3 8-0.743-0.804-1.48-1.61-2.25-2.44-2.5-2.33-3.47-3.2-6.75-3.56v2c-5.96 1.86-5.96 1.86-8 2l-3-3c-3.18-1.01-3.18-1.01-6.69-1.69-1.18-0.251-2.36-0.503-3.57-0.762-0.904-0.182-1.81-0.364-2.74-0.551v3c-2.97 0.99-2.97 0.99-6 2-2.35-2.55-2.98-3.71-3.19-7.25 0.0619-0.908 0.124-1.82 0.188-2.75h-2c-0.182-0.771-0.364-1.54-0.551-2.34-0.251-1-0.503-2.01-0.762-3.04-0.244-0.998-0.487-2-0.738-3.02-0.771-2.91-0.771-2.91-3.95-4.6-0.477-3.08-0.477-3.08-0.625-6.81-0.159-4.72-0.159-4.72-0.841-9.37-0.713-3.76-0.994-7.53-1.29-11.3-0.0652-0.825-0.13-1.65-0.197-2.5-0.137-1.75-0.272-3.49-0.406-5.24-0.202-2.63-0.413-5.25-0.625-7.88-0.757-9.64-1.23-19.2-1.02-28.8zm4 51 1 2z" fill="#956DEA"/>
<path transform="translate(775,1106)" d="m0 0c0.66 0.66 1.32 1.32 2 2 1.65-0.66 3.3-1.32 5-2 1.19 2.38 1.1 3.86 1.06 6.5-0.00902 0.794-0.018 1.59-0.0273 2.41-0.0116 0.691-0.0232 1.38-0.0352 2.09v2c0.536-0.33 1.07-0.66 1.62-1 2.91-1.23 5.24-1.14 8.38-1v-2c2.13 1.07 3.37 2.29 5 4v-2c2.08-0.0542 4.17-0.0929 6.25-0.125 1.74-0.0348 1.74-0.0348 3.52-0.0703 3.13 0.189 4.55 0.757 7.23 2.2 2.72-0.787 2.72-0.787 5-2v6c2.17-0.833 2.17-0.833 3-3 0.99 0.495 0.99 0.495 2 1 0.33-0.66 0.66-1.32 1-2 3 2 3 2 3.92 5.36 0.53 5.96-1.67 11.3-3.61 16.8-0.752 2.22-1.5 4.45-2.25 6.67-0.542 1.59-0.542 1.59-1.09 3.21-0.806 2.45-1.53 4.89-2.18 7.38-0.3 1.15-0.601 2.3-0.91 3.48-0.229 0.958-0.459 1.92-0.695 2.9-1.69 3.1-3.91 3.1-7.18 4.16-1.35 2.13-1.35 2.13-1.88 4.62-0.224 0.817-0.449 1.63-0.68 2.48-0.147 0.626-0.294 1.25-0.445 1.9l-1-2c-1.95 1.95-2.85 3.53-4 6-0.99-0.33-1.98-0.66-3-1 0.33 1.32 0.66 2.64 1 4-3.75 3-3.75 3-6 3-0.33 1.65-0.66 3.3-1 5-0.99 0.33-1.98 0.66-3 1-1.23 3.51-1.23 3.51-2 7-0.782 0.121-1.56 0.242-2.37 0.367-1.01 0.168-2.02 0.335-3.07 0.508-1.01 0.162-2.02 0.325-3.06 0.492-1.24 0.313-1.24 0.313-2.5 0.633-0.33 0.66-0.66 1.32-1 2h-5v2h-5c-0.33-0.99-0.66-1.98-1-3 2.48-0.495 2.48-0.495 5-1v-5c-0.66 1.65-1.32 3.3-2 5-0.495-0.99-0.495-0.99-1-2-2.53-0.656-2.53-0.656-5-1 1.19-2.44 1.19-2.44 3-5 2.69-0.812 2.69-0.812 5-1-0.33-1.32-0.66-2.64-1-4-0.33 0.99-0.66 1.98-1 3-1.88-0.125-1.88-0.125-4-1-1.31-2.94-1.31-2.94-2-6l1-2h-2l-1-6c-1.49 0.495-1.49 0.495-3 1-0.99-1.32-1.98-2.64-3-4-0.66 1.65-1.32 3.3-2 5h-1c0.357-5.9 1.16-11.2 3.18-16.7 0.871-2.43 1.6-4.87 2.32-7.35 1.06-3.58 2.27-7.05 3.61-10.5 2.5-6.77 4.66-13.7 6.91-20.5 1.27-3.77 2.68-7.48 4.07-11.2 0.859-2.55 1.44-5.03 1.9-7.68z" fill="#6E7FF9"/>
<path transform="translate(976,210)" d="m0 0c4.02 2.63 6.63 5.89 9.44 9.75 1.16 1.59 1.16 1.59 2.35 3.22 0.73 1 1.46 2 2.21 3.03 1.1 1.42 2.21 2.83 3.31 4.25 2.77 3.7 4.73 7.57 6.69 11.8 0.81 1.61 1.62 3.21 2.44 4.81 4.09 8.21 7.94 16.4 10.6 25.2 0.291 0.956 0.583 1.91 0.883 2.9 2.25 7.71 2.25 7.71 1.12 11.1-0.33-0.66-0.66-1.32-1-2-0.99 0.495-0.99 0.495-2 1-0.33-0.99-0.66-1.98-1-3-1.48-0.167-2.96-0.334-4.44-0.5-0.824-0.0928-1.65-0.186-2.5-0.281-2.9-0.307-3.02-0.234-6.07 0.781-7.22 2.3-7.22 2.3-10.1 1.19-0.619-0.392-1.24-0.784-1.88-1.19-1.99-0.383-3.99-0.726-6-1v1c-2.48 0.495-2.48 0.495-5 1-0.495 1.49-0.495 1.49-1 3-0.66 0.66-1.32 1.32-2 2-0.495 1.49-0.495 1.49-1 3h-1v2c-0.99 0.66-1.98 1.32-3 2-1.03 3.33-1.03 3.33-1.69 7.12-0.377 1.92-0.377 1.92-0.762 3.88-0.182 0.987-0.364 1.97-0.551 2.99h-2c-0.0748-0.897-0.15-1.79-0.227-2.72-1.52-14.4-6.3-26.9-13.8-39.3-0.534-0.913-1.07-1.83-1.62-2.77-3.66-6.03-7.78-11.1-12.7-16.2-1.72-2-1.72-2-1.72-4-0.639-0.289-1.28-0.577-1.94-0.875-2.06-1.12-2.06-1.12-3.06-3.12 0.681-0.474 1.36-0.949 2.06-1.44 2.28-3.01 2.11-3.71 1.69-7.31-0.229-1.42-0.473-2.84-0.75-4.25-0.66 0.99-1.32 1.98-2 3v-5h5v-3c1.65-0.33 3.3-0.66 5-1 0.33-1.32 0.66-2.64 1-4h2c0.33-1.65 0.66-3.3 1-5 3.46-0.866 5.6-0.974 9 0 6.39 1.74 6.39 1.74 13 2v-3h9c0.99-0.33 1.98-0.66 3-1z" fill="#FD8E22"/>
<path transform="translate(1240,633)" d="m0 0h3c0.124 1.05 0.247 2.1 0.375 3.19 0.302 2.47 0.642 4.91 1.07 7.36 1.47 8.56 2.16 17.1 2.8 25.8 0.446 5.96 0.982 11.9 1.66 17.8 0.999 8.81 1.18 17 0.0972 25.8-0.92-0.195-1.84-0.389-2.79-0.59-3.99-0.51-5.81 0.567-9.21 2.59-0.99-0.66-1.98-1.32-3-2 0.33-0.33 0.66-0.66 1-1h-7c-0.495 1.49-0.495 1.49-1 3-0.99-0.33-1.98-0.66-3-1-0.495 1.49-0.495 1.49-1 3-0.33-0.66-0.66-1.32-1-2h-7v2h-9c-0.33 0.99-0.66 1.98-1 3-3.88-0.875-3.88-0.875-5-2-1.99-0.366-3.99-0.701-6-1v-4h-4c-0.0449-0.811-0.0898-1.62-0.136-2.46-1.25-22.2-2.92-44.4-4.86-66.5h3c0.33 1.98 0.66 3.96 1 6 0.33-1.98 0.66-3.96 1-6 5.91-0.774 11.1-1.1 17 0 5.11 1.07 5.11 1.07 10 0 0.66-0.99 1.32-1.98 2-3v4c4.45-0.495 4.45-0.495 9-1v-2c0.784-0.247 1.57-0.495 2.38-0.75 2.95-1.4 3.53-2.26 4.62-5.25h4c0.33-0.99 0.66-1.98 1-3zm-50 60 1 3z" fill="#D2288F"/>
<path transform="translate(452,1297)" d="m0 0c3.26 2.98 4.77 4.99 5.75 9.31-1.37 6.71-5.9 11.6-11.5 15.4-3.35 2.32-4.25 3.83-6.25 7.25-1.69 1.6-3.45 3.06-5.25 4.54-3.13 2.6-5.91 5.47-8.56 8.56-3.8 4.42-7.49 8.01-12.2 11.4-2.78 2.19-4.96 4.78-7.21 7.5-2.12 2.48-4.42 4.73-6.74 7.03-1.04 1.04-2.08 2.09-3.12 3.13-3.09 3.1-6.17 6.2-9.26 9.3-1.33 1.33-2.65 2.66-3.97 3.99-1.93 1.94-3.86 3.88-5.79 5.81-0.583 0.588-1.17 1.18-1.77 1.78-3.4 3.4-6.91 6.61-10.6 9.69-1.84 1.59-3.38 3.33-4.92 5.22-2.36 2.78-4.78 5.21-7.56 7.56-3.45 2.93-6.36 6.08-9.29 9.52-4.3 4.96-9.05 9.37-14.1 13.6-1.86 1.57-1.86 1.57-4.18 4.23-2.98 2.68-4.44 3.27-8.44 3.19-3.95-1.56-6.61-3.42-9-7 0.246-4.51 0.739-7.74 4-11h2c0.0619-0.598 0.124-1.2 0.188-1.81 1.14-3.07 3.02-3.57 5.81-5.19 1.37-1.63 2.71-3.3 4-5 1.67-1.67 3.33-3.33 5-5 0.944-1.12 1.88-2.24 2.81-3.38 2.83-3.35 5.97-6.16 9.3-9 2.42-2.09 4.65-4.33 6.88-6.62l15-15c0.763-0.784 1.53-1.57 2.31-2.38 2.21-2.16 4.46-4.13 6.81-6.12 3.02-2.6 4.92-5 6.88-8.5 0.99-0.33 1.98-0.66 3-1 0.33-0.99 0.66-1.98 1-3 0.99-0.33 1.98-0.66 3-1 1.72-1.66 1.72-1.66 3.38-3.69 0.612-0.718 1.22-1.44 1.86-2.18 1.08-1.3 2.14-2.61 3.2-3.93 2.34-2.93 4.19-4.64 7.57-6.21 0.33-0.99 0.66-1.98 1-3 1.6-1.54 1.6-1.54 3.62-3.19 2.89-2.44 5.44-4.92 7.88-7.81 2.96-3.49 6.17-6.45 9.65-9.41 2.41-2.08 4.63-4.31 6.85-6.59 1.67-1.67 3.33-3.33 5-5 0.825-0.887 1.65-1.77 2.5-2.69 4.32-3.99 7.8-5.21 13.5-3.31z" fill="#6E7FF9"/>
<path transform="translate(714,465)" d="m0 0c0.66 0.66 1.32 1.32 2 2 3.58 1.07 3.58 1.07 7 0 3 10.3 1.84 22.3 2 33 0.0103 0.667 0.0205 1.33 0.0311 2.02 0.06 4.54 0.0319 9.07-0.0311 13.6 0.00725 1.18 0.0145 2.35 0.022 3.57-0.212 8.56-2.51 14.2-8.02 20.8-2.91 2.57-2.91 2.57-5.62 4.12-0.9 0.539-1.8 1.08-2.73 1.63-6.32 2.97-13.9 3.37-20.6 1.18-8.16-3.49-15.5-8.56-19.1-16.9-0.788-3.35-1.12-6.43-1.1-9.86 0.00322-0.886 0.00645-1.77 0.00977-2.69 0.00838-0.912 0.0168-1.82 0.0254-2.76 0.00451-0.931 0.00902-1.86 0.0137-2.82 0.0117-2.29 0.0282-4.58 0.0488-6.87 0.66 0.66 1.32 1.32 2 2 0.11-0.701 0.219-1.4 0.332-2.12 0.99-5.93 1.97-11.5 4.67-16.9 2.69-1 2.69-1 5-1-0.0619-1.09-0.124-2.19-0.188-3.31 0.188-3.69 0.188-3.69 1.44-5.69 1.75-1 1.75-1 3.94-0.688 0.598 0.227 1.2 0.454 1.81 0.688-0.33 0.99-0.66 1.98-1 3 1.65-0.33 3.3-0.66 5-1 0.33-0.99 0.66-1.98 1-3h4c-0.33-0.99-0.66-1.98-1-3 0.66-0.66 1.32-1.32 2-2 2.62 0.375 2.62 0.375 5 1-0.495-2.97-0.495-2.97-1-6 0.742-0.144 1.49-0.289 2.25-0.438 1.61-0.33 3.22-0.692 4.81-1.12 1.94-0.438 1.94-0.438 5.94-0.438z" fill="#FC533A"/>
<path transform="translate(500,569)" d="m0 0c3.69 0.692 3.69 0.692 5 2 0.99-0.33 1.98-0.66 3-1 3.11 2.54 3.91 5.2 5 9 0.282 0.958 0.282 0.958 0.57 1.94 0.46 2.21 0.419 3.92 0.193 6.16-0.115 1.19-0.115 1.19-0.233 2.41-0.134 1.27-0.134 1.27-0.271 2.57-0.0878 0.877-0.176 1.75-0.266 2.66-0.187 1.85-0.377 3.7-0.57 5.55-0.296 2.84-0.58 5.68-0.863 8.52-0.183 1.8-0.366 3.6-0.551 5.39-0.0855 0.852-0.171 1.7-0.259 2.58-0.633 5.99-0.633 5.99-1.75 8.22-0.233 2.88-0.42 5.74-0.562 8.62-0.0432 0.802-0.0864 1.6-0.131 2.43-0.106 1.98-0.207 3.96-0.307 5.95-0.99 0.495-0.99 0.495-2 1v-12c-2.48 0.495-2.48 0.495-5 1-0.66-0.66-1.32-1.32-2-2 0.66-0.33 1.32-0.66 2-1-1.98-0.66-3.96-1.32-6-2v2c-6.33 1.85-12.4 3.38-19 4v2c0 3 0 3-1.5 4.54-0.641 0.504-1.28 1.01-1.94 1.53-2.72 2.1-2.72 2.1-4.56 4.94-1.42 0.0272-2.83 0.0465-4.25 0.0625-1.18 0.0174-1.18 0.0174-2.39 0.0352-2.27-0.0938-4.19-0.465-6.36-1.1-0.144 0.598-0.289 1.2-0.438 1.81-0.45 1.75-0.991 3.47-1.56 5.19-2.06 0.688-2.06 0.688-4 1-1.6-3.21-0.942-6.62-0.75-10.1 0.0452-0.854 0.0904-1.71 0.137-2.59 0.505-8.67 1.26-17.3 2.05-26 0.0614-0.692 0.123-1.38 0.186-2.1 0.676-7.55 1.5-14.9 3.38-22.2 0.66 0.66 1.32 1.32 2 2 1.52-1.52 1.45-3.22 1.81-5.31 0.848-3.97 1.73-6.28 5.19-8.69h3c0.33-0.99 0.66-1.98 1-3 2.48 0.495 2.48 0.495 5 1 0.33 0.99 0.66 1.98 1 3 2.31 0.33 4.62 0.66 7 1v-4c0.784-0.268 1.57-0.536 2.38-0.812 2.91-1.04 2.91-1.04 4.62-4.19h2v2c1.24-0.186 2.48-0.371 3.75-0.562 3.01-0.385 5.35-0.525 8.25 0.562v-2c-0.66-0.33-1.32-0.66-2-1 0.33-0.33 0.66-0.66 1-1zm-50 62 1 2z" fill="#FB523B"/>
<path transform="translate(1210,903)" d="m0 0c3.75 3.75 3.69 7.98 4 13h2c0.124 0.763 0.247 1.53 0.375 2.31 0.647 2.78 1.57 4.64 3.62 6.69 0.99-0.33 1.98-0.66 3-1h2v-3c10.6 0.964 10.6 0.964 15 2 0.33 0.99 0.66 1.98 1 3 0.66-0.33 1.32-0.66 2-1 2-0.04 4-0.0435 6 0v-2c1.32-0.33 2.64-0.66 4-1v2l4 2c0.268-0.804 0.536-1.61 0.812-2.44 0.588-1.27 0.588-1.27 1.19-2.56 3-1 3-1 5-0.312 2.26 1.48 3.46 3.11 5 5.31h1c0.43 4.75 0.857 9.5 1.28 14.3 0.145 1.61 0.29 3.23 0.437 4.84 0.211 2.33 0.418 4.65 0.625 6.98 0.0984 1.08 0.0984 1.08 0.199 2.18 0.317 3.6 0.531 7.14 0.457 10.8h-2c-0.33 1.98-0.66 3.96-1 6-0.33-0.66-0.66-1.32-1-2-0.934 2.8-0.974 4.8-0.875 7.81 0.0822 4.38-1.18 7.3-3.12 11.2h-2v2h-5v2c-1.32-0.33-2.64-0.66-4-1v2c-1.65-0.33-3.3-0.66-5-1v-3c-0.99 0.33-1.98 0.66-3 1-0.99-1.65-1.98-3.3-3-5-2.64 0.33-5.28 0.66-8 1-0.247-0.969-0.495-1.94-0.75-2.94-0.619-1.52-0.619-1.52-1.25-3.06-2.03-0.969-2.03-0.969-4-1-0.125-5.75-0.125-5.75 1-8h-4c-1.36-1.98-2.7-3.98-4-6h-3c-0.144-1.13-0.289-2.27-0.438-3.44-0.174-3.37-0.174-3.37-1.56-4.56-0.66 0.66-1.32 1.32-2 2v-2h-2c-0.575-6.1-1.14-12.2-1.71-18.3-0.193-2.07-0.387-4.15-0.582-6.22-0.282-2.99-0.558-5.98-0.834-8.97-0.0875-0.916-0.175-1.83-0.265-2.78-0.51-5.6-0.779-11.1-0.61-16.7 0.33-0.33 0.66-0.66 1-1z" fill="#6E7FF9"/>
<path transform="translate(1e3 278)" d="m0 0c0.495 1.49 0.495 1.49 1 3 0.722-0.186 1.44-0.371 2.19-0.562 2.98-0.463 4.94-0.314 7.81 0.562 0.495 0.99 0.495 0.99 1 2 0.656 0.568 1.31 1.14 1.99 1.72 2.58 2.92 2.76 4.87 3.2 8.71 0.146 1.26 0.291 2.52 0.441 3.82 0.122 1.24 0.245 2.47 0.371 3.75 0.112 0.978 0.224 1.96 0.34 2.96 0.729 7.44 0.761 14.9 0.785 22.3 0.00467 1.03 0.00935 2.05 0.0142 3.11-0.0119 5.62-0.302 11-1.14 16.6l-2-2c0.33-0.66 0.66-1.32 1-2-0.763-0.0206-1.53-0.0412-2.31-0.0625-2.69-0.938-2.69-0.938-4.5-4.5-0.392-1.13-0.784-2.27-1.19-3.44-4.53-0.419-4.53-0.419-8.31 1.88-1.72 2.01-1.72 2.01-2.69 4.12-2.14 0.379-2.14 0.379-4.81 0.562-3.18 0.23-6.11 0.57-9.19 1.44-0.0412 0.722-0.0825 1.44-0.125 2.19-1.25 4.01-3.47 5.47-6.88 7.81h-4l-1 2c-0.66-0.33-1.32-0.66-2-1-0.33 0.99-0.66 1.98-1 3h-2c0.33 0.99 0.66 1.98 1 3-0.901 3.4-1.5 5.5-4 8v-2h-2c-0.0768-7.68-0.129-15.4-0.165-23-0.015-2.61-0.0354-5.21-0.0615-7.82-0.272-27.8-0.272-27.8 3.23-41.1h4c-0.33-0.99-0.66-1.98-1-3 1.18-1.18 2.38-2.33 3.62-3.44 1.71-1.59 1.71-1.59 1.38-4.56 2-2 2-2 4.81-2.19 3.99 0.234 7.41 0.927 11.2 2.19 2.09 0 4.05-0.233 6.12-0.5 1.92-0.248 1.92-0.248 3.88-0.5l-1-2 2-1z" fill="#FC6933"/>
<path transform="translate(1256,780)" d="m0 0h1c0.742 7.83 1.47 15.7 2.19 23.5 0.245 2.66 0.496 5.32 0.748 7.98 0.363 3.83 0.715 7.66 1.06 11.5 0.115 1.18 0.229 2.37 0.347 3.59 0.54 6.04 0.704 11.5-0.351 17.4h-2c-0.33-0.99-0.66-1.98-1-3-11.3-0.994-22-1.65-33 2v-2c-1.58 0.247-1.58 0.247-3.19 0.5-3.81 0.5-3.81 0.5-6.56 0.438-2.54-0.129-2.54-0.129-5.25 2.06-0.124-0.722-0.247-1.44-0.375-2.19-0.547-2.83-0.547-2.83-1.69-5.44-0.938-2.38-0.938-2.38-0.938-5.38-1.48 0.495-1.48 0.495-3 1-0.66-0.33-1.32-0.66-2-1-0.49-2.77-0.851-5.46-1.12-8.25-0.0842-0.813-0.168-1.63-0.255-2.46-0.887-9.13-1.3-18.2 0.38-27.3 0.66 0.33 1.32 0.66 2 1 0.66-1.32 1.32-2.64 2-4l4 2c-0.33 0.66-0.66 1.32-1 2 2.27-1.02 3.81-1.77 5.44-3.69 1.56-1.31 1.56-1.31 4.19-1.12 2.38 0.812 2.38 0.812 3.38 2.81-0.99 0.33-1.98 0.66-3 1 2.64 0.33 5.28 0.66 8 1-0.66 0.66-1.32 1.32-2 2 2.58-0.43 4.73-0.86 7.06-2.06 1.94-0.938 1.94-0.938 5.94-0.938 0.33-0.99 0.66-1.98 1-3h5c-0.33 0.66-0.66 1.32-1 2 2.64 0.33 5.28 0.66 8 1v-7h2c0.495 1.49 0.495 1.49 1 3l3-9z" fill="#A959CB"/>
<path transform="translate(841,970)" d="m0 0c4.76 4.76 6.13 10.7 8 17 0.291 0.937 0.583 1.87 0.883 2.84 1.68 5.69 2.55 11.1 2.91 17-0.0164 2.1-0.0164 2.1 1.21 3.12 0.0727 2.35 0.0837 4.71 0.0625 7.06-0.00902 1.29-0.018 2.58-0.0273 3.91-0.0116 0.999-0.0232 2-0.0352 3.03-1.98 0.66-3.96 1.32-6 2-0.33-0.99-0.66-1.98-1-3-0.99 0.99-1.98 1.98-3 3v-3c-2.88 0.4-4.65 0.715-6.94 2.56-2.81 1.96-4.72 1.8-8.06 1.44-0.66-0.66-1.32-1.32-2-2v-2c-1.98-0.66-3.96-1.32-6-2v3h-7v-3h-9v3h-4c-0.124-0.681-0.247-1.36-0.375-2.06-0.726-3.41-1.45-6.65-2.62-9.94-1.32-0.684-2.66-1.35-4-2-1.6-3.14-2.74-6.26-3.9-9.59-1.95-5.56-4.11-10.6-7.15-15.6-0.953-1.78-0.953-1.78-0.953-3.78h3v-3c6.34-1.53 12.5-2.48 19-3v2h2v3c0.66-0.165 1.32-0.33 2-0.5 2.55-0.424 4.63-0.507 7.19-0.438 3.83 0.379 3.83 0.379 5.81-2.06 4.7-0.921 9.22-1.1 14-1 0.33-1.32 0.66-2.64 1-4 0.99 0.33 1.98 0.66 3 1 0.33-0.66 0.66-1.32 1-2l1-1z" fill="#AA59CB"/>
<path transform="translate(479,1369)" d="m0 0c1.88 1.44 1.88 1.44 3 3v2c0.99 0.33 1.98 0.66 3 1 0.605 4.84 0.201 7.24-2.75 11.2-1.06 1.29-2.14 2.56-3.25 3.81-0.722 0.825-1.44 1.65-2.19 2.5-1.81 1.5-1.81 1.5-4.81 1.5-0.0928 0.835-0.0928 0.835-0.188 1.69-1.16 3.3-3.27 4.94-5.81 7.31-0.825 0.825-1.65 1.65-2.5 2.5-0.825 0.825-1.65 1.65-2.5 2.5-0.763 0.784-1.53 1.57-2.31 2.38-2.83 2.76-5.77 5.33-8.76 7.91-1.68 1.49-3.25 3.03-4.8 4.65-2.12 2.06-2.12 2.06-4.12 2.06-0.0877 0.589-0.175 1.18-0.266 1.79-0.932 2.81-2.2 3.79-4.48 5.65-3.79 3.17-7.58 6.34-10.6 10.3-2.89 2.14-6.2 2.37-9.69 2.25-3.64-1.54-6.18-3.46-8-7 0.275-4.41 1.23-8.3 4.48-11.4 0.563-0.438 1.13-0.877 1.71-1.33 2.62-2.15 4.87-4.35 7.06-6.94 4.6-5.41 9.7-10.3 14.8-15.3 3.26-3.25 6.5-6.51 9.73-9.78 2.46-2.49 4.92-4.97 7.39-7.45 1.3-1.31 2.59-2.62 3.89-3.93 1.88-1.9 3.76-3.8 5.65-5.69 0.576-0.586 1.15-1.17 1.75-1.78 4.76-4.76 7.62-7.3 14.6-5.37z" fill="#6280F5"/>
<path transform="translate(390,1262)" d="m0 0c2.75 2.38 2.75 2.38 5 5l2 2c-0.543 6.09-0.543 6.09-2 9h-2c-0.268 0.639-0.536 1.28-0.812 1.94-1.19 2.06-1.19 2.06-4.19 3.06l-1 4c-1.49 0.495-1.49 0.495-3 1-0.289 0.578-0.577 1.15-0.875 1.75-1.52 3.05-3.61 4.98-6.12 7.25-0.99 0.33-1.98 0.66-3 1-0.33 0.99-0.66 1.98-1 3-2.82 3.13-5.27 5.14-9 7-0.33 0.99-0.66 1.98-1 3-1.5 1.47-1.5 1.47-3.44 3.06-5.95 5.05-11.8 10.4-16.6 16.6-3.27 4.05-6.76 6.92-11.9 8-4.02-0.838-7.32-2.45-10-5.62-0.922-2.83-0.922-2.83-1-6 3.23-6.32 8.16-12 14-16h2c0.206-0.536 0.413-1.07 0.625-1.62 1.91-3.29 4.42-5.97 7.38-8.38h2c0.248-0.557 0.495-1.11 0.75-1.69 1.8-3.33 3.66-6.56 7.17-8.22 2.47-1.29 3.75-2.76 5.52-4.9 3.55-4.19 6.97-8.12 11.6-11.2 0.33-0.99 0.66-1.98 1-3 1.32-0.684 2.66-1.35 4-2 1.67-1.67 1.67-1.67 3.12-3.56 3.32-4.14 5.43-5.08 10.9-4.44z" fill="#956DEA"/>
<path transform="translate(1017,486)" d="m0 0c2 1 2 1 2.61 2.62 0.848 5.24 0.571 10.6 0.571 15.9 0.00218 2.19 0.0203 4.39 0.0393 6.58 0.04 9.76-0.0659 17.8-6.22 25.9-0.742 1.03-1.49 2.06-2.25 3.12-4.61 4.82-10.3 7.48-17 8.08-7.18 0.139-13.3-0.847-19.3-4.95-2.04-3.19-1.62-5.5-1.44-9.25-0.254-3.01-0.619-6-1-9 2.67-1.33 5.33-2.67 8-4 0.652-2.02 0.652-2.02 1-4h2c0.33-1.32 0.66-2.64 1-4h2v2c3.47-0.495 3.47-0.495 7-1 0.33-1.98 0.66-3.96 1-6 0.33 0.66 0.66 1.32 1 2 0.33-0.66 0.66-1.32 1-2h2c0.33-0.99 0.66-1.98 1-3 0.66 0.66 1.32 1.32 2 2 4.17-1.95 6.05-3.83 8-8h2c-0.66-1.32-1.32-2.64-2-4h3c0.33-0.99 0.66-1.98 1-3 0.65-1.34 1.32-2.68 2-4 0.33-0.66 0.66-1.32 1-2z" fill="#EB345F"/>
<path transform="translate(373,1390)" d="m0 0c0.99 1.48 0.99 1.48 2 3-0.846 0.66-1.69 1.32-2.56 2-3.3 2.74-6.01 5.84-8.79 9.09-3.23 3.74-6.77 7.02-10.5 10.2-3.47 3-6.44 6.22-9.41 9.71-4.3 4.96-9.05 9.37-14.1 13.6-1.86 1.57-1.86 1.57-4.18 4.23-2.98 2.68-4.44 3.27-8.44 3.19-3.95-1.56-6.61-3.42-9-7 0.246-4.51 0.739-7.74 4-11h2c0.0619-0.598 0.124-1.2 0.188-1.81 1.14-3.07 3.02-3.57 5.81-5.19 1.37-1.63 2.71-3.3 4-5 1.67-1.67 3.33-3.33 5-5 0.944-1.12 1.88-2.24 2.81-3.38 8.95-10.5 8.95-10.5 15.2-11.6-0.33 0.66-0.66 1.32-1 2 3.07-0.776 3.07-0.776 5-3 2.48 1.98 2.48 1.98 5 4v-3c3.01-0.934 3.87-1.04 7 0 0.33-1.32 0.66-2.64 1-4 1.3 0.0206 2.6 0.0412 3.94 0.0625 1.35 0.0215 2.71 0.00898 4.06-0.0625 0.33-0.33 0.66-0.66 1-1z" fill="#6280F5"/>
<path transform="translate(687,1016)" d="m0 0c0.928 0.165 1.86 0.33 2.81 0.5 3.14 0.577 3.14 0.577 6.19 0.5h3c0.188 2.38 0.188 2.38 0 5-0.99 0.66-1.98 1.32-3 2l-1 2c-0.66-0.66-1.32-1.32-2-2-0.66 0.66-1.32 1.32-2 2-1.67-1.67-3.33-3.33-5-5 0.33-0.66 0.66-1.32 1-2h5c-1.65-0.33-3.3-0.66-5-1v-2z" fill="#AA59CB"/>
<path transform="translate(724,317)" d="m0 0h1v58h-1v-58z" fill="#000204"/>
<path transform="translate(614,1042)" d="m0 0c5.54-0.369 5.54-0.369 7.88 1.5 0.371 0.495 0.742 0.99 1.12 1.5h-2c0.33 0.33 0.66 0.66 1 1 0.683 1.33 1.35 2.66 2 4-2.31 0.688-2.31 0.688-5 1-2.96-1.97-3.88-4.72-5-8v-1z" fill="#AA5ACC"/>
<path transform="translate(329,1417)" d="m0 0c0.66 0.33 1.32 0.66 2 1 2.1-0.399 2.1-0.399 4-1-0.33 0.99-0.66 1.98-1 3h-3v3c-2.31 0.33-4.62 0.66-7 1 0.33-1.65 0.66-3.3 1-5h4v-2z" fill="#6D80F9"/>
<path transform="translate(613,1230)" d="m0 0c1 3 1 3 0 6-5.54-0.492-5.54-0.492-7.88-3.06-0.557-0.959-0.557-0.959-1.12-1.94 3.2-1.07 5.66-1.07 9-1z" fill="#6280F5"/>
<path transform="translate(677,1178)" d="m0 0c1.04 3.13 0.934 3.99 0 7-1.32-0.33-2.64-0.66-4-1v2c-0.66-0.33-1.32-0.66-2-1 0.312-2.38 0.312-2.38 1-5 3-2 3-2 5-2z" fill="#8A73EF"/>
<path transform="translate(753,1181)" d="m0 0v10h-4c0.114-1.48 0.241-2.96 0.375-4.44 0.0696-0.824 0.139-1.65 0.211-2.5 0.137-0.682 0.273-1.36 0.414-2.07 2-1 2-1 3-1z" fill="#6E80FA"/>
<path transform="translate(717,1019)" d="m0 0c1.88 0.25 1.88 0.25 4 1 1.25 2.06 1.25 2.06 2 4-1.65 0.66-3.3 1.32-5 2v-2c-0.99-0.33-1.98-0.66-3-1 0.66-1.32 1.32-2.64 2-4z" fill="#B742B1"/>
<path transform="translate(1283,1073)" d="m0 0h1v5h-1v-5z" fill="#000204"/>
<path transform="translate(1268,906)" d="m0 0h1v5h-1v-5z" fill="#000204"/>
<path transform="translate(1213,960)" d="m0 0 1 4z" fill="#6280F5"/>
<path transform="translate(1237,559)" d="m0 0 1 4z" fill="#000204"/>
<path transform="translate(1232,503)" d="m0 0 1 4z" fill="#000204"/>
</svg>
